<svg id="图层_1" data-name="图层 1" xmlns="http://www.w3.org/2000/svg" viewBox="0 0 1406.4 1082.86"><defs><style>.cls-1{fill:#da372f;}.cls-2{fill:#231815;}</style></defs><rect class="cls-1" x="1166.05" y="633.53" width="1.54" height="121.31"/><path class="cls-2" d="M415.25,733.94H289.43a5.89,5.89,0,0,1-5.88-5.88V269.31a5.89,5.89,0,0,1,5.88-5.88H415.25a5.89,5.89,0,0,1,5.88,5.88V728.06A5.89,5.89,0,0,1,415.25,733.94ZM289.43,264.59a4.74,4.74,0,0,0-4.73,4.72V728.06a4.74,4.74,0,0,0,4.73,4.72H415.25a4.73,4.73,0,0,0,4.73-4.72V269.31a4.73,4.73,0,0,0-4.73-4.72Z"/><path class="cls-2" d="M420.55,306.17H284.13a.58.58,0,0,1,0-1.16H420.55a.58.58,0,1,1,0,1.16Z"/><path class="cls-2" d="M420.55,692.32H284.13a.58.58,0,1,1,0-1.15H420.55a.58.58,0,1,1,0,1.15Z"/><path class="cls-2" d="M334,536.82h-8a12.09,12.09,0,0,1-12.08-12.07V472.62A12.09,12.09,0,0,1,326,460.55h8A12.09,12.09,0,0,1,346,472.62v52.13A12.09,12.09,0,0,1,334,536.82Zm-8-75.12a10.94,10.94,0,0,0-10.93,10.92v52.13A10.94,10.94,0,0,0,326,535.67h8a10.94,10.94,0,0,0,10.93-10.92V472.62A10.94,10.94,0,0,0,334,461.7Z"/><path class="cls-2" d="M333,533.13h-6a9,9,0,0,1-9-9V473.25a9,9,0,0,1,9-9h6a9,9,0,0,1,9,9v50.87A9,9,0,0,1,333,533.13Zm-6-67.74a7.87,7.87,0,0,0-7.85,7.86v50.87A7.87,7.87,0,0,0,327,532h6a7.87,7.87,0,0,0,7.85-7.86V473.25a7.87,7.87,0,0,0-7.85-7.86Z"/><path class="cls-2" d="M330.1,523.89h-.26A3.86,3.86,0,0,1,326,520V476.31a3.86,3.86,0,0,1,3.86-3.86h.26a3.86,3.86,0,0,1,3.86,3.86V520A3.86,3.86,0,0,1,330.1,523.89Zm-.26-50.29a2.72,2.72,0,0,0-2.71,2.71V520a2.72,2.72,0,0,0,2.71,2.71h.26a2.71,2.71,0,0,0,2.71-2.71V476.31a2.71,2.71,0,0,0-2.71-2.71Z"/><path class="cls-2" d="M330,512.74a.58.58,0,0,1-.58-.58v-28a.58.58,0,1,1,1.16,0v28A.58.58,0,0,1,330,512.74Z"/><path class="cls-2" d="M339.14,413.19H328.82a9,9,0,0,1-6.41-2.63l-5.79-5.71a9.21,9.21,0,0,1-2.71-6.49v-24.6a9.09,9.09,0,0,1,1.53-5.06l6.32-9.48v-8a2.71,2.71,0,0,1,2.71-2.71h14.67a.58.58,0,0,1,0,1.15H324.47a1.55,1.55,0,0,0-1.55,1.56v8.18a.58.58,0,0,1-.1.32l-6.42,9.63a8,8,0,0,0-1.34,4.42v24.6a8.06,8.06,0,0,0,2.37,5.67l5.79,5.71a7.93,7.93,0,0,0,5.6,2.3h10.32a.58.58,0,0,1,0,1.15Z"/><path class="cls-2" d="M349.46,413.19H339.14a.58.58,0,1,1,0-1.15h10.32a7.93,7.93,0,0,0,5.6-2.3l5.78-5.71a8,8,0,0,0,2.37-5.67v-24.6a7.9,7.9,0,0,0-1.34-4.42l-6.41-9.63a.51.51,0,0,1-.1-.32v-8.46a1.28,1.28,0,0,0-1.28-1.28H339.14a.58.58,0,1,1,0-1.15h14.94a2.43,2.43,0,0,1,2.43,2.43v8.29l6.32,9.48a9.09,9.09,0,0,1,1.53,5.06v24.6a9.21,9.21,0,0,1-2.71,6.49l-5.78,5.71A9.07,9.07,0,0,1,349.46,413.19Z"/><path class="cls-2" d="M339.14,408.45h-8.62a7.72,7.72,0,0,1-5.42-2.2l-4.83-4.74a7.64,7.64,0,0,1-2.29-5.44V375.7a7.64,7.64,0,0,1,1.29-4.25L325.33,361v-8.5a.57.57,0,0,1,.57-.58h12.74a.57.57,0,0,1,.57.58.56.56,0,0,1-.57.57H326.48v8.09a.6.6,0,0,1-.08.29l-6.15,10.64a6.48,6.48,0,0,0-1.12,3.64v20.37a6.5,6.5,0,0,0,1.95,4.62l4.83,4.73a6.56,6.56,0,0,0,4.61,1.88h8.62a.58.58,0,0,1,0,1.15Z"/><path class="cls-2" d="M347.75,408.45h-8.61a.58.58,0,1,1,0-1.15h8.61a6.58,6.58,0,0,0,4.62-1.88l4.83-4.73a6.54,6.54,0,0,0,1.94-4.62V375.7a6.45,6.45,0,0,0-1.1-3.61l-6.43-10.3a.61.61,0,0,1-.08-.3V353H338.64a.57.57,0,0,1-.58-.57.58.58,0,0,1,.58-.58H352.1a.58.58,0,0,1,.58.58v8.85L359,371.47a7.53,7.53,0,0,1,1.29,4.23v20.37a7.65,7.65,0,0,1-2.3,5.44l-4.83,4.74A7.69,7.69,0,0,1,347.75,408.45Z"/><path class="cls-2" d="M331.08,413.19a.57.57,0,0,1-.57-.57v-4.74a.57.57,0,0,1,.57-.58.58.58,0,0,1,.58.58v4.74A.58.58,0,0,1,331.08,413.19Z"/><path class="cls-2" d="M346.33,413.19a.58.58,0,0,1-.57-.57v-4.74a.58.58,0,1,1,1.15,0v4.74A.58.58,0,0,1,346.33,413.19Z"/><path class="cls-2" d="M340.46,403.44h-2.65a1.58,1.58,0,0,1-1.12-.47,1.55,1.55,0,0,1-.47-1.13v-1.55a1.12,1.12,0,0,0-.72-1l-2-.83a1.11,1.11,0,0,0-1.23.15l-1.11,1.1a1.61,1.61,0,0,1-2.25,0L327,397.87a1.59,1.59,0,0,1-.47-1.13,1.61,1.61,0,0,1,.47-1.13l1.11-1.1a1.12,1.12,0,0,0,.17-1.19l-.83-2a1.16,1.16,0,0,0-1-.76h-1.56a1.58,1.58,0,0,1-1.12-.47,1.55,1.55,0,0,1-.47-1.13V386.3a1.6,1.6,0,0,1,.46-1.13,1.61,1.61,0,0,1,1.13-.46h1.56a1.12,1.12,0,0,0,1-.72l.83-2a1.13,1.13,0,0,0-.15-1.23L327,379.64a1.62,1.62,0,0,1,0-2.26l1.87-1.87a1.64,1.64,0,0,1,2.26,0l1.11,1.11a1.13,1.13,0,0,0,1.18.17l2-.83a1.15,1.15,0,0,0,.76-1v-1.56a1.57,1.57,0,0,1,1.59-1.59h2.65a1.58,1.58,0,0,1,1.13.46,1.62,1.62,0,0,1,.47,1.13V375a1.13,1.13,0,0,0,.71,1l2,.83a1.15,1.15,0,0,0,1.24-.15l1.1-1.11a1.64,1.64,0,0,1,2.26,0l1.87,1.87a1.61,1.61,0,0,1,0,2.26l-1.11,1.11a1.11,1.11,0,0,0-.17,1.18l.83,2a1.13,1.13,0,0,0,1,.77h1.55a1.58,1.58,0,0,1,1.13.46,1.62,1.62,0,0,1,.47,1.13V389a1.6,1.6,0,0,1-1.6,1.6H351.8a1.14,1.14,0,0,0-1,.71l-.82,2a1.13,1.13,0,0,0,.15,1.24l1.1,1.1a1.59,1.59,0,0,1,0,2.26l-1.87,1.88a1.58,1.58,0,0,1-1.13.46h0a1.55,1.55,0,0,1-1.13-.47l-1.1-1.1a1.11,1.11,0,0,0-1.18-.17l-2,.83a1.15,1.15,0,0,0-.76,1v1.55a1.6,1.6,0,0,1-1.6,1.6ZM333,397.22a2.05,2.05,0,0,1,1,.23l1.91.78a2.26,2.26,0,0,1,1.48,2.06v1.55a.48.48,0,0,0,.13.32.43.43,0,0,0,.31.12h2.65a.44.44,0,0,0,.45-.44v-1.55a2.27,2.27,0,0,1,1.52-2.07l1.92-.79a2.25,2.25,0,0,1,2.49.39l1.1,1.11a.49.49,0,0,0,.31.13.44.44,0,0,0,.31-.13l1.88-1.87a.48.48,0,0,0,.13-.32.44.44,0,0,0-.13-.31l-1.11-1.11a2.27,2.27,0,0,1-.37-2.54l.78-1.91a2.27,2.27,0,0,1,2.06-1.47h1.55a.44.44,0,0,0,.31-.13.45.45,0,0,0,.14-.32V386.3a.44.44,0,0,0-.45-.44H351.8a2.28,2.28,0,0,1-2.08-1.53l-.79-1.91a2.26,2.26,0,0,1,.4-2.49l1.11-1.1a.48.48,0,0,0,.13-.32.44.44,0,0,0-.13-.31l-1.88-1.87a.44.44,0,0,0-.62,0l-1.11,1.1a2.25,2.25,0,0,1-2.54.38l-1.91-.78a2.27,2.27,0,0,1-1.47-2.06v-1.56a.44.44,0,0,0-.13-.31.48.48,0,0,0-.32-.13h-2.65a.46.46,0,0,0-.31.13.44.44,0,0,0-.13.31V375a2.27,2.27,0,0,1-1.52,2.07l-1.92.79a2.23,2.23,0,0,1-2.49-.4l-1.1-1.1a.45.45,0,0,0-.63,0l-1.87,1.87a.41.41,0,0,0-.13.32.43.43,0,0,0,.13.31l1.1,1.1a2.25,2.25,0,0,1,.38,2.54l-.78,1.91a2.26,2.26,0,0,1-2.06,1.48h-1.56a.42.42,0,0,0-.31.13.44.44,0,0,0-.13.31V389a.48.48,0,0,0,.13.32.46.46,0,0,0,.31.13h1.56a2.27,2.27,0,0,1,2.07,1.52l.79,1.91a2.22,2.22,0,0,1-.4,2.49l-1.1,1.11a.4.4,0,0,0-.13.31.44.44,0,0,0,.13.32l1.87,1.87a.45.45,0,0,0,.63,0l1.11-1.11A2.21,2.21,0,0,1,333,397.22Z"/><path class="cls-2" d="M339.14,395.43a7.81,7.81,0,1,1,7.81-7.8A7.81,7.81,0,0,1,339.14,395.43Zm0-14.46a6.66,6.66,0,1,0,6.65,6.66A6.67,6.67,0,0,0,339.14,381Z"/><path class="cls-2" d="M352.1,361.7H325.9a.56.56,0,0,1-.57-.57.57.57,0,0,1,.57-.58h26.2a.58.58,0,0,1,.58.58A.57.57,0,0,1,352.1,361.7Z"/><path class="cls-2" d="M355.78,368H322.29a.57.57,0,0,1-.58-.57.58.58,0,0,1,.58-.58h33.49a.58.58,0,0,1,.58.58A.57.57,0,0,1,355.78,368Z"/><path class="cls-2" d="M353.8,648.62H339.14a.57.57,0,0,1-.58-.57.58.58,0,0,1,.58-.58H353.8a1.56,1.56,0,0,0,1.56-1.55v-8.19a.55.55,0,0,1,.1-.32l6.41-9.63a7.89,7.89,0,0,0,1.34-4.41V598.76a8,8,0,0,0-2.37-5.66l-5.78-5.72a7.93,7.93,0,0,0-5.6-2.3H339.14a.58.58,0,1,1,0-1.15h10.32a9.07,9.07,0,0,1,6.41,2.63l5.78,5.72a9.17,9.17,0,0,1,2.71,6.48v24.61a9.09,9.09,0,0,1-1.53,5l-6.32,9.49v8A2.7,2.7,0,0,1,353.8,648.62Z"/><path class="cls-2" d="M339.14,648.62H324.19a2.43,2.43,0,0,1-2.43-2.43v-8.28l-6.32-9.49a9.09,9.09,0,0,1-1.53-5V598.76a9.17,9.17,0,0,1,2.71-6.48l5.79-5.72a9,9,0,0,1,6.41-2.63h10.32a.58.58,0,0,1,0,1.15H328.82a7.93,7.93,0,0,0-5.6,2.3l-5.79,5.72a8,8,0,0,0-2.37,5.66v24.61a8,8,0,0,0,1.34,4.41l6.42,9.63a.63.63,0,0,1,.1.32v8.46a1.27,1.27,0,0,0,1.27,1.28h14.95a.57.57,0,0,1,.57.58A.56.56,0,0,1,339.14,648.62Z"/><path class="cls-2" d="M352.37,645.23H339.64a.58.58,0,1,1,0-1.15H351.8V636a.53.53,0,0,1,.07-.28L358,625.06a6.47,6.47,0,0,0,1.12-3.63V601.06a6.56,6.56,0,0,0-1.94-4.63l-4.83-4.73a6.58,6.58,0,0,0-4.62-1.88h-8.61a.57.57,0,0,1-.58-.57.58.58,0,0,1,.58-.58h8.61a7.66,7.66,0,0,1,5.42,2.21l4.83,4.73a7.67,7.67,0,0,1,2.3,5.45v20.37a7.57,7.57,0,0,1-1.3,4.24L353,636.15v8.51A.58.58,0,0,1,352.37,645.23Z"/><path class="cls-2" d="M339.64,645.23H326.17a.57.57,0,0,1-.57-.57V635.8l-6.34-10.14a7.65,7.65,0,0,1-1.28-4.23V601.06a7.66,7.66,0,0,1,2.29-5.45l4.83-4.73a7.69,7.69,0,0,1,5.42-2.21h8.62a.57.57,0,0,1,.57.58.56.56,0,0,1-.57.57h-8.62a6.56,6.56,0,0,0-4.61,1.88l-4.83,4.73a6.53,6.53,0,0,0-1.95,4.63v20.37a6.44,6.44,0,0,0,1.1,3.6l6.43,10.3a.55.55,0,0,1,.09.3v8.45h12.89a.58.58,0,0,1,0,1.15Z"/><path class="cls-2" d="M347.19,589.82a.56.56,0,0,1-.57-.57v-4.74a.57.57,0,0,1,.57-.58.58.58,0,0,1,.58.58v4.74A.57.57,0,0,1,347.19,589.82Z"/><path class="cls-2" d="M331.94,589.82a.57.57,0,0,1-.58-.57v-4.74a.58.58,0,0,1,1.16,0v4.74A.57.57,0,0,1,331.94,589.82Z"/><path class="cls-2" d="M352.37,636.57h-26.2a.58.58,0,0,1,0-1.15h26.2a.58.58,0,1,1,0,1.15Z"/><path class="cls-2" d="M356,630.32H322.5a.58.58,0,1,1,0-1.15H356a.58.58,0,1,1,0,1.15Z"/><path class="cls-2" d="M339.59,623.16a13.37,13.37,0,1,1,13.35-13.94h2.37a.58.58,0,0,1,.51.31.59.59,0,0,1,0,.6l-4.54,6.48a.6.6,0,0,1-.48.24.56.56,0,0,1-.47-.26l-4.21-6.48a.57.57,0,0,1,.48-.89h2.09a9.08,9.08,0,1,0-9.06,9.66.57.57,0,0,1,.57.58v3.12A.57.57,0,0,1,339.59,623.16Zm0-25.57A12.21,12.21,0,0,0,339,622v-2a10.24,10.24,0,1,1,10.82-10.23.58.58,0,0,1-.58.58h-1.63l3.17,4.87,3.41-4.87h-1.83a.57.57,0,0,1-.57-.58A12.22,12.22,0,0,0,339.59,597.59ZM353,609.79h0Z"/><path class="cls-2" d="M288.51,733.71a.57.57,0,0,1-.57-.58V264.28a.57.57,0,0,1,.57-.58.58.58,0,0,1,.58.58V733.13A.58.58,0,0,1,288.51,733.71Z"/><path class="cls-2" d="M416.43,733.71a.58.58,0,0,1-.58-.58V264.28a.58.58,0,0,1,.58-.58.57.57,0,0,1,.57.58V733.13A.57.57,0,0,1,416.43,733.71Z"/><path class="cls-2" d="M1006.13,211H501.5a6.17,6.17,0,0,1-6.16-6.17V78a6.17,6.17,0,0,1,6.16-6.17h504.63a6.17,6.17,0,0,1,6.16,6.17V204.87A6.17,6.17,0,0,1,1006.13,211ZM501.5,73a5,5,0,0,0-5,5V204.87a5,5,0,0,0,5,5h504.63a5,5,0,0,0,5-5V78a5,5,0,0,0-5-5Z"/><path class="cls-2" d="M966,211a.57.57,0,0,1-.57-.58V72.4a.57.57,0,0,1,.57-.58.58.58,0,0,1,.58.58V210.46A.58.58,0,0,1,966,211Z"/><path class="cls-2" d="M541.64,211a.58.58,0,0,1-.57-.58V72.4a.58.58,0,1,1,1.15,0V210.46A.58.58,0,0,1,541.64,211Z"/><path class="cls-2" d="M719.45,77.41H496.16a.58.58,0,0,1,0-1.15H719.45a.58.58,0,0,1,0,1.15Z"/><path class="cls-2" d="M1011.42,77.41h-227a.58.58,0,1,1,0-1.15h227a.58.58,0,1,1,0,1.15Z"/><path class="cls-2" d="M1011.42,206.87H496.16a.58.58,0,0,1,0-1.16h515.26a.58.58,0,1,1,0,1.16Z"/><path class="cls-2" d="M752,151.28a6.64,6.64,0,1,1,6.64-6.64A6.65,6.65,0,0,1,752,151.28Zm0-12.12a5.49,5.49,0,1,0,5.48,5.48A5.49,5.49,0,0,0,752,139.16Z"/><path class="cls-2" d="M752,148.73a4.09,4.09,0,1,1,4.08-4.09A4.09,4.09,0,0,1,752,148.73Zm0-7a2.93,2.93,0,1,0,2.93,2.93A2.93,2.93,0,0,0,752,141.71Z"/><path class="cls-2" d="M782,89H721.91a3,3,0,0,1-3-3V74.86a3,3,0,0,1,3-3H782a3,3,0,0,1,3,3V85.94A3,3,0,0,1,782,89ZM721.91,73A1.89,1.89,0,0,0,720,74.86V85.94a1.89,1.89,0,0,0,1.89,1.88H782a1.89,1.89,0,0,0,1.89-1.88V74.86A1.89,1.89,0,0,0,782,73Z"/><path class="cls-2" d="M744.27,89a.58.58,0,0,1-.57-.58v-16a.58.58,0,1,1,1.15,0v16A.58.58,0,0,1,744.27,89Z"/><path class="cls-2" d="M760,89a.58.58,0,0,1-.57-.58v-16a.58.58,0,1,1,1.15,0v16A.58.58,0,0,1,760,89Z"/><path class="cls-2" d="M1002.13,914.51H505.5a6.14,6.14,0,0,1-6.13-6.13V780.92a6.15,6.15,0,0,1,6.13-6.14h496.63a6.15,6.15,0,0,1,6.13,6.14V908.38A6.14,6.14,0,0,1,1002.13,914.51ZM505.5,775.94a5,5,0,0,0-5,5V908.38a5,5,0,0,0,5,5h496.63a5,5,0,0,0,5-5V780.92a5,5,0,0,0-5-5Z"/><path class="cls-2" d="M962.7,914.51a.58.58,0,0,1-.57-.57V775.36a.58.58,0,1,1,1.15,0V913.94A.58.58,0,0,1,962.7,914.51Z"/><path class="cls-2" d="M545,914.51a.57.57,0,0,1-.57-.57V775.36a.57.57,0,0,1,.57-.58.58.58,0,0,1,.58.58V913.94A.58.58,0,0,1,545,914.51Z"/><path class="cls-2" d="M784,780.39H500.19a.58.58,0,1,1,0-1.15H784a.58.58,0,0,1,0,1.15Z"/><path class="cls-2" d="M1007.4,780.39H784a.58.58,0,1,1,0-1.15H1007.4a.58.58,0,0,1,0,1.15Z"/><path class="cls-2" d="M1007.4,910.32H500.19a.58.58,0,1,1,0-1.15H1007.4a.58.58,0,0,1,0,1.15Z"/><path class="cls-2" d="M610.2,892.78H565.28a3,3,0,0,1-3-3V850.55a3,3,0,0,1,3-3H610.2a3,3,0,0,1,3,3v39.26A3,3,0,0,1,610.2,892.78Zm-44.92-44a1.82,1.82,0,0,0-1.81,1.82v39.26a1.82,1.82,0,0,0,1.81,1.82H610.2a1.83,1.83,0,0,0,1.82-1.82V850.55a1.83,1.83,0,0,0-1.82-1.82Z"/><path class="cls-2" d="M609.44,889.91H566.05a.57.57,0,0,1-.58-.57V851a.57.57,0,0,1,.58-.57h43.39a.57.57,0,0,1,.57.57v38.32A.57.57,0,0,1,609.44,889.91Zm-42.82-1.15h42.24V851.6H566.62Z"/><path class="cls-2" d="M581.23,864.38h-6.5a.58.58,0,0,1-.58-.57V857.3a.58.58,0,0,1,.58-.58h6.5a.58.58,0,0,1,.58.58v6.51A.58.58,0,0,1,581.23,864.38Zm-5.93-1.15h5.36v-5.36H575.3Z"/><path class="cls-2" d="M600.75,864.38h-6.5a.58.58,0,0,1-.58-.57V857.3a.58.58,0,0,1,.58-.58h6.5a.58.58,0,0,1,.58.58v6.51A.58.58,0,0,1,600.75,864.38Zm-5.93-1.15h5.36v-5.36h-5.36Z"/><path class="cls-2" d="M581.23,883.64h-6.5a.58.58,0,0,1-.58-.58v-6.51a.58.58,0,0,1,.58-.57h6.5a.58.58,0,0,1,.58.57v6.51A.58.58,0,0,1,581.23,883.64Zm-5.93-1.16h5.36v-5.35H575.3Z"/><path class="cls-2" d="M600.75,883.64h-6.5a.58.58,0,0,1-.58-.58v-6.51a.58.58,0,0,1,.58-.57h6.5a.58.58,0,0,1,.58.57v6.51A.58.58,0,0,1,600.75,883.64Zm-5.93-1.16h5.36v-5.35h-5.36Z"/><path class="cls-2" d="M766.08,892.78H644.47a3,3,0,0,1-3-3V850.55a3,3,0,0,1,3-3H766.08a3,3,0,0,1,3,3v39.26A3,3,0,0,1,766.08,892.78Zm-121.61-44a1.82,1.82,0,0,0-1.81,1.82v39.26a1.82,1.82,0,0,0,1.81,1.82H766.08a1.82,1.82,0,0,0,1.81-1.82V850.55a1.82,1.82,0,0,0-1.81-1.82Z"/><path class="cls-2" d="M765.31,889.91H645.45a.57.57,0,0,1-.58-.57V851a.57.57,0,0,1,.58-.57H765.31a.57.57,0,0,1,.57.57v38.32A.57.57,0,0,1,765.31,889.91ZM646,888.76H764.73V851.6H646Z"/><path class="cls-2" d="M659.86,864.38h-6.51a.57.57,0,0,1-.57-.57V857.3a.57.57,0,0,1,.57-.58h6.51a.58.58,0,0,1,.58.58v6.51A.58.58,0,0,1,659.86,864.38Zm-5.93-1.15h5.35v-5.36h-5.35Z"/><path class="cls-2" d="M679.38,864.38h-6.51a.57.57,0,0,1-.57-.57V857.3a.57.57,0,0,1,.57-.58h6.51a.58.58,0,0,1,.58.58v6.51A.58.58,0,0,1,679.38,864.38Zm-5.93-1.15h5.35v-5.36h-5.35Z"/><path class="cls-2" d="M659.86,883.64h-6.51a.57.57,0,0,1-.57-.58v-6.51a.57.57,0,0,1,.57-.57h6.51a.58.58,0,0,1,.58.57v6.51A.58.58,0,0,1,659.86,883.64Zm-5.93-1.16h5.35v-5.35h-5.35Z"/><path class="cls-2" d="M679.38,883.64h-6.51a.57.57,0,0,1-.57-.58v-6.51a.57.57,0,0,1,.57-.57h6.51a.58.58,0,0,1,.58.57v6.51A.58.58,0,0,1,679.38,883.64Zm-5.93-1.16h5.35v-5.35h-5.35Z"/><path class="cls-2" d="M698.87,864.38h-6.51a.58.58,0,0,1-.57-.57V857.3a.58.58,0,0,1,.57-.58h6.51a.58.58,0,0,1,.58.58v6.51A.58.58,0,0,1,698.87,864.38Zm-5.93-1.15h5.35v-5.36h-5.35Z"/><path class="cls-2" d="M718.39,864.38h-6.51a.58.58,0,0,1-.57-.57V857.3a.58.58,0,0,1,.57-.58h6.51a.58.58,0,0,1,.58.58v6.51A.58.58,0,0,1,718.39,864.38Zm-5.93-1.15h5.35v-5.36h-5.35Z"/><path class="cls-2" d="M698.87,883.64h-6.51a.58.58,0,0,1-.57-.58v-6.51a.58.58,0,0,1,.57-.57h6.51a.58.58,0,0,1,.58.57v6.51A.58.58,0,0,1,698.87,883.64Zm-5.93-1.16h5.35v-5.35h-5.35Z"/><path class="cls-2" d="M718.39,883.64h-6.51a.58.58,0,0,1-.57-.58v-6.51a.58.58,0,0,1,.57-.57h6.51a.58.58,0,0,1,.58.57v6.51A.58.58,0,0,1,718.39,883.64Zm-5.93-1.16h5.35v-5.35h-5.35Z"/><path class="cls-2" d="M737.88,864.38h-6.5a.58.58,0,0,1-.58-.57V857.3a.58.58,0,0,1,.58-.58h6.5a.58.58,0,0,1,.58.58v6.51A.58.58,0,0,1,737.88,864.38ZM732,863.23h5.36v-5.36H732Z"/><path class="cls-2" d="M757.4,864.38h-6.5a.58.58,0,0,1-.58-.57V857.3a.58.58,0,0,1,.58-.58h6.5a.58.58,0,0,1,.58.58v6.51A.58.58,0,0,1,757.4,864.38Zm-5.93-1.15h5.36v-5.36h-5.36Z"/><path class="cls-2" d="M737.88,883.64h-6.5a.58.58,0,0,1-.58-.58v-6.51a.58.58,0,0,1,.58-.57h6.5a.58.58,0,0,1,.58.57v6.51A.58.58,0,0,1,737.88,883.64ZM732,882.48h5.36v-5.35H732Z"/><path class="cls-2" d="M757.4,883.64h-6.5a.58.58,0,0,1-.58-.58v-6.51a.58.58,0,0,1,.58-.57h6.5a.58.58,0,0,1,.58.57v6.51A.58.58,0,0,1,757.4,883.64Zm-5.93-1.16h5.36v-5.35h-5.36Z"/><path class="cls-2" d="M941.11,892.78H819.5a3,3,0,0,1-3-3V850.55a3,3,0,0,1,3-3H941.11a3,3,0,0,1,3,3v39.26A3,3,0,0,1,941.11,892.78Zm-121.61-44a1.82,1.82,0,0,0-1.81,1.82v39.26a1.82,1.82,0,0,0,1.81,1.82H941.11a1.82,1.82,0,0,0,1.81-1.82V850.55a1.82,1.82,0,0,0-1.81-1.82Z"/><path class="cls-2" d="M940.34,889.91H820.48a.57.57,0,0,1-.58-.57V851a.57.57,0,0,1,.58-.57H940.34a.56.56,0,0,1,.57.57v38.32A.56.56,0,0,1,940.34,889.91Zm-119.29-1.15H939.76V851.6H821.05Z"/><path class="cls-2" d="M834.89,864.38h-6.51a.57.57,0,0,1-.57-.57V857.3a.57.57,0,0,1,.57-.58h6.51a.58.58,0,0,1,.58.58v6.51A.58.58,0,0,1,834.89,864.38ZM829,863.23h5.35v-5.36H829Z"/><path class="cls-2" d="M854.41,864.38H847.9a.57.57,0,0,1-.57-.57V857.3a.57.57,0,0,1,.57-.58h6.51a.58.58,0,0,1,.58.58v6.51A.58.58,0,0,1,854.41,864.38Zm-5.93-1.15h5.35v-5.36h-5.35Z"/><path class="cls-2" d="M834.89,883.64h-6.51a.57.57,0,0,1-.57-.58v-6.51a.57.57,0,0,1,.57-.57h6.51a.58.58,0,0,1,.58.57v6.51A.58.58,0,0,1,834.89,883.64ZM829,882.48h5.35v-5.35H829Z"/><path class="cls-2" d="M854.41,883.64H847.9a.57.57,0,0,1-.57-.58v-6.51a.57.57,0,0,1,.57-.57h6.51a.58.58,0,0,1,.58.57v6.51A.58.58,0,0,1,854.41,883.64Zm-5.93-1.16h5.35v-5.35h-5.35Z"/><path class="cls-2" d="M873.9,864.38h-6.51a.58.58,0,0,1-.57-.57V857.3a.58.58,0,0,1,.57-.58h6.51a.58.58,0,0,1,.58.58v6.51A.58.58,0,0,1,873.9,864.38ZM868,863.23h5.35v-5.36H868Z"/><path class="cls-2" d="M893.42,864.38h-6.51a.58.58,0,0,1-.57-.57V857.3a.58.58,0,0,1,.57-.58h6.51a.58.58,0,0,1,.58.58v6.51A.58.58,0,0,1,893.42,864.38Zm-5.93-1.15h5.35v-5.36h-5.35Z"/><path class="cls-2" d="M873.9,883.64h-6.51a.58.58,0,0,1-.57-.58v-6.51a.58.58,0,0,1,.57-.57h6.51a.58.58,0,0,1,.58.57v6.51A.58.58,0,0,1,873.9,883.64ZM868,882.48h5.35v-5.35H868Z"/><path class="cls-2" d="M893.42,883.64h-6.51a.58.58,0,0,1-.57-.58v-6.51a.58.58,0,0,1,.57-.57h6.51a.58.58,0,0,1,.58.57v6.51A.58.58,0,0,1,893.42,883.64Zm-5.93-1.16h5.35v-5.35h-5.35Z"/><path class="cls-2" d="M912.91,864.38h-6.5a.58.58,0,0,1-.58-.57V857.3a.58.58,0,0,1,.58-.58h6.5a.58.58,0,0,1,.58.58v6.51A.58.58,0,0,1,912.91,864.38ZM907,863.23h5.36v-5.36H907Z"/><path class="cls-2" d="M932.43,864.38h-6.5a.58.58,0,0,1-.58-.57V857.3a.58.58,0,0,1,.58-.58h6.5a.58.58,0,0,1,.58.58v6.51A.58.58,0,0,1,932.43,864.38Zm-5.93-1.15h5.36v-5.36H926.5Z"/><path class="cls-2" d="M912.91,883.64h-6.5a.58.58,0,0,1-.58-.58v-6.51a.58.58,0,0,1,.58-.57h6.5a.58.58,0,0,1,.58.57v6.51A.58.58,0,0,1,912.91,883.64ZM907,882.48h5.36v-5.35H907Z"/><path class="cls-2" d="M932.43,883.64h-6.5a.58.58,0,0,1-.58-.58v-6.51a.58.58,0,0,1,.58-.57h6.5a.58.58,0,0,1,.58.57v6.51A.58.58,0,0,1,932.43,883.64Zm-5.93-1.16h5.36v-5.35H926.5Z"/><path class="cls-2" d="M962.7,914.51H545a.57.57,0,0,1-.57-.57V844.38a6.53,6.53,0,0,1,6.52-6.53H957.13a6.16,6.16,0,0,1,6.15,6.15v69.94A.58.58,0,0,1,962.7,914.51Zm-417.16-1.15H962.13V844a5,5,0,0,0-5-5H550.91a5.38,5.38,0,0,0-5.37,5.37Z"/><path class="cls-2" d="M549.6,914.51a.58.58,0,0,1-.57-.57V838.43a.58.58,0,1,1,1.15,0v75.51A.58.58,0,0,1,549.6,914.51Z"/><path class="cls-2" d="M957.38,914.51a.58.58,0,0,1-.58-.57V838.43a.58.58,0,1,1,1.16,0v75.51A.58.58,0,0,1,957.38,914.51Z"/><path class="cls-2" d="M962.24,842.35H545.59a.57.57,0,0,1-.58-.57.58.58,0,0,1,.58-.58H962.24a.58.58,0,0,1,.58.58A.57.57,0,0,1,962.24,842.35Z"/><path class="cls-2" d="M962.24,845.54H545.59A.57.57,0,0,1,545,845a.58.58,0,0,1,.58-.58H962.24a.58.58,0,0,1,.58.58A.57.57,0,0,1,962.24,845.54Z"/><path class="cls-2" d="M1211.8,730.38H1080.38a6.13,6.13,0,0,1-6.12-6.12V267a6.12,6.12,0,0,1,6.12-6.11H1211.8a6.12,6.12,0,0,1,6.12,6.11V724.26A6.12,6.12,0,0,1,1211.8,730.38ZM1080.38,262a5,5,0,0,0-5,5V724.26a5,5,0,0,0,5,5H1211.8a5,5,0,0,0,5-5V267a5,5,0,0,0-5-5Z"/><path class="cls-2" d="M1217.34,303.53h-142.5a.58.58,0,0,1-.58-.58.57.57,0,0,1,.58-.57h142.5a.57.57,0,0,1,.58.57A.58.58,0,0,1,1217.34,303.53Z"/><path class="cls-2" d="M1217.34,688.86h-142.5a.58.58,0,0,1,0-1.16h142.5a.58.58,0,0,1,0,1.16Z"/><path class="cls-2" d="M1079.42,730.15a.57.57,0,0,1-.58-.57V261.73a.58.58,0,0,1,1.16,0V729.58A.57.57,0,0,1,1079.42,730.15Z"/><path class="cls-2" d="M1213,730.15a.57.57,0,0,1-.57-.57V261.73a.58.58,0,1,1,1.15,0V729.58A.57.57,0,0,1,1213,730.15Z"/><path class="cls-2" d="M1180.36,677.06h-27.08a16.75,16.75,0,0,1-16.73-16.73V499.21a16.75,16.75,0,0,1,16.73-16.73h27.08a16.74,16.74,0,0,1,16.73,16.73V660.33A16.74,16.74,0,0,1,1180.36,677.06Zm-27.08-193.43a15.6,15.6,0,0,0-15.57,15.58V660.33a15.6,15.6,0,0,0,15.57,15.58h27.08a15.6,15.6,0,0,0,15.58-15.58V499.21a15.6,15.6,0,0,0-15.58-15.58Z"/><path class="cls-2" d="M1178.78,671.68h-23.91a12.65,12.65,0,0,1-12.64-12.63V500.49a12.65,12.65,0,0,1,12.64-12.63h23.91a12.64,12.64,0,0,1,12.63,12.63V659.05A12.64,12.64,0,0,1,1178.78,671.68ZM1154.87,489a11.48,11.48,0,0,0-11.48,11.47V659.05a11.49,11.49,0,0,0,11.48,11.48h23.91a11.49,11.49,0,0,0,11.48-11.48V500.49A11.48,11.48,0,0,0,1178.78,489Z"/><path class="cls-2" d="M1153.75,506.12a5.45,5.45,0,1,1,5.45-5.45A5.45,5.45,0,0,1,1153.75,506.12Zm0-9.74a4.29,4.29,0,1,0,4.3,4.29A4.3,4.3,0,0,0,1153.75,496.38Z"/><path class="cls-2" d="M1179.89,506.12a5.45,5.45,0,1,1,5.45-5.45A5.45,5.45,0,0,1,1179.89,506.12Zm0-9.74a4.29,4.29,0,1,0,4.29,4.29A4.3,4.3,0,0,0,1179.89,496.38Z"/><path class="cls-2" d="M1166.82,517.25a5.45,5.45,0,1,1,5.45-5.44A5.45,5.45,0,0,1,1166.82,517.25Zm0-9.73a4.29,4.29,0,1,0,4.29,4.29A4.3,4.3,0,0,0,1166.82,507.52Z"/><path class="cls-2" d="M1153.75,528.92a5.45,5.45,0,1,1,5.45-5.45A5.45,5.45,0,0,1,1153.75,528.92Zm0-9.74a4.29,4.29,0,1,0,4.3,4.29A4.3,4.3,0,0,0,1153.75,519.18Z"/><path class="cls-2" d="M1179.89,528.92a5.45,5.45,0,1,1,5.45-5.45A5.45,5.45,0,0,1,1179.89,528.92Zm0-9.74a4.29,4.29,0,1,0,4.29,4.29A4.3,4.3,0,0,0,1179.89,519.18Z"/><path class="cls-2" d="M1166.82,540.05a5.45,5.45,0,1,1,5.45-5.44A5.45,5.45,0,0,1,1166.82,540.05Zm0-9.73a4.29,4.29,0,1,0,4.29,4.29A4.3,4.3,0,0,0,1166.82,530.32Z"/><path class="cls-2" d="M1153.75,551.71a5.44,5.44,0,1,1,5.45-5.44A5.45,5.45,0,0,1,1153.75,551.71Zm0-9.73a4.29,4.29,0,1,0,4.3,4.29A4.3,4.3,0,0,0,1153.75,542Z"/><path class="cls-2" d="M1179.89,551.71a5.44,5.44,0,1,1,5.45-5.44A5.45,5.45,0,0,1,1179.89,551.71Zm0-9.73a4.29,4.29,0,1,0,4.29,4.29A4.3,4.3,0,0,0,1179.89,542Z"/><path class="cls-2" d="M1166.82,562.85a5.45,5.45,0,1,1,5.45-5.44A5.45,5.45,0,0,1,1166.82,562.85Zm0-9.73a4.29,4.29,0,1,0,4.29,4.29A4.3,4.3,0,0,0,1166.82,553.12Z"/><path class="cls-2" d="M1153.75,574.51a5.45,5.45,0,1,1,5.45-5.44A5.45,5.45,0,0,1,1153.75,574.51Zm0-9.73a4.29,4.29,0,1,0,4.3,4.29A4.3,4.3,0,0,0,1153.75,564.78Z"/><path class="cls-2" d="M1179.89,574.51a5.45,5.45,0,1,1,5.45-5.44A5.45,5.45,0,0,1,1179.89,574.51Zm0-9.73a4.29,4.29,0,1,0,4.29,4.29A4.3,4.3,0,0,0,1179.89,564.78Z"/><path class="cls-2" d="M1166.82,585.65a5.45,5.45,0,1,1,5.45-5.44A5.45,5.45,0,0,1,1166.82,585.65Zm0-9.74a4.3,4.3,0,1,0,4.29,4.3A4.3,4.3,0,0,0,1166.82,575.91Z"/><path class="cls-2" d="M1153.75,597.31a5.45,5.45,0,1,1,5.45-5.44A5.45,5.45,0,0,1,1153.75,597.31Zm0-9.73a4.29,4.29,0,1,0,4.3,4.29A4.3,4.3,0,0,0,1153.75,587.58Z"/><path class="cls-2" d="M1179.89,597.31a5.45,5.45,0,1,1,5.45-5.44A5.45,5.45,0,0,1,1179.89,597.31Zm0-9.73a4.29,4.29,0,1,0,4.29,4.29A4.3,4.3,0,0,0,1179.89,587.58Z"/><path class="cls-2" d="M1166.82,608.45a5.45,5.45,0,1,1,5.45-5.45A5.45,5.45,0,0,1,1166.82,608.45Zm0-9.74a4.3,4.3,0,1,0,4.29,4.29A4.3,4.3,0,0,0,1166.82,598.71Z"/><path class="cls-2" d="M1153.75,620.11a5.45,5.45,0,1,1,5.45-5.44A5.45,5.45,0,0,1,1153.75,620.11Zm0-9.73a4.29,4.29,0,1,0,4.3,4.29A4.3,4.3,0,0,0,1153.75,610.38Z"/><path class="cls-2" d="M1179.89,620.11a5.45,5.45,0,1,1,5.45-5.44A5.45,5.45,0,0,1,1179.89,620.11Zm0-9.73a4.29,4.29,0,1,0,4.29,4.29A4.3,4.3,0,0,0,1179.89,610.38Z"/><path class="cls-2" d="M1166.82,631.25a5.45,5.45,0,1,1,5.45-5.45A5.45,5.45,0,0,1,1166.82,631.25Zm0-9.74a4.3,4.3,0,1,0,4.29,4.29A4.3,4.3,0,0,0,1166.82,621.51Z"/><path class="cls-2" d="M1153.75,642.91a5.45,5.45,0,1,1,5.45-5.44A5.45,5.45,0,0,1,1153.75,642.91Zm0-9.74a4.3,4.3,0,1,0,4.3,4.3A4.3,4.3,0,0,0,1153.75,633.17Z"/><path class="cls-2" d="M1179.89,642.91a5.45,5.45,0,1,1,5.45-5.44A5.45,5.45,0,0,1,1179.89,642.91Zm0-9.74a4.3,4.3,0,1,0,4.29,4.3A4.3,4.3,0,0,0,1179.89,633.17Z"/><path class="cls-2" d="M1166.82,654.05a5.45,5.45,0,1,1,5.45-5.45A5.45,5.45,0,0,1,1166.82,654.05Zm0-9.74a4.29,4.29,0,1,0,4.29,4.29A4.3,4.3,0,0,0,1166.82,644.31Z"/><path class="cls-2" d="M1153.75,665.71a5.45,5.45,0,1,1,5.45-5.45A5.45,5.45,0,0,1,1153.75,665.71Zm0-9.74a4.3,4.3,0,1,0,4.3,4.29A4.3,4.3,0,0,0,1153.75,656Z"/><path class="cls-2" d="M1179.89,665.71a5.45,5.45,0,1,1,5.45-5.45A5.45,5.45,0,0,1,1179.89,665.71Zm0-9.74a4.3,4.3,0,1,0,4.29,4.29A4.3,4.3,0,0,0,1179.89,656Z"/><path class="cls-2" d="M1079.06,128.86l-1.33,7.17.07.07a4.81,4.81,0,0,1,2.08-1.36,8,8,0,0,1,2.55-.44,9.31,9.31,0,0,1,3.13.53,7,7,0,0,1,2.56,1.6,7.46,7.46,0,0,1,1.72,2.67,10.14,10.14,0,0,1,.63,3.74,8.94,8.94,0,0,1-.54,3.07,7.63,7.63,0,0,1-1.63,2.65,7.85,7.85,0,0,1-2.73,1.85,9.89,9.89,0,0,1-3.81.68,9.66,9.66,0,0,1-3-.47,7.88,7.88,0,0,1-2.52-1.37,6.57,6.57,0,0,1-1.72-2.23,7.32,7.32,0,0,1-.66-3h3a4.85,4.85,0,0,0,.48,1.77,4.62,4.62,0,0,0,1.08,1.44,4.85,4.85,0,0,0,1.62.95,6.08,6.08,0,0,0,2,.33,5.49,5.49,0,0,0,2-.37,4.54,4.54,0,0,0,1.69-1.1,5.27,5.27,0,0,0,1.14-1.85,7.19,7.19,0,0,0,.42-2.58,6.14,6.14,0,0,0-.4-2.26,5.27,5.27,0,0,0-1.14-1.79,5.09,5.09,0,0,0-1.78-1.18,6,6,0,0,0-2.3-.42,5.21,5.21,0,0,0-2.61.65,7.26,7.26,0,0,0-2,1.7l-2.57-.14,2.32-12.92h12.29v2.63Z"/><path class="cls-2" d="M1098.94,146.81v3.9H1095v-3.9Z"/><path class="cls-2" d="M1125.38,125.63a7.76,7.76,0,0,1,5.74,2,8.65,8.65,0,0,1,0,10.94c-1.29,1.31-3.21,1.95-5.74,1.93h-7.65v10.26h-3.34V125.63Zm-1.12,12a6,6,0,0,0,4.16-1.16,4.39,4.39,0,0,0,1.32-3.44,4.33,4.33,0,0,0-1.32-3.42,6.1,6.1,0,0,0-4.16-1.18h-6.53v9.2Z"/><path class="cls-2" d="M1136.23,137.9a8.68,8.68,0,0,1,1.69-3,8,8,0,0,1,2.77-2,10.15,10.15,0,0,1,7.61,0,8,8,0,0,1,2.76,2,8.66,8.66,0,0,1,1.68,3,12,12,0,0,1,.56,3.74,11.81,11.81,0,0,1-.56,3.73,8.57,8.57,0,0,1-1.68,3,7.73,7.73,0,0,1-2.76,2,10.41,10.41,0,0,1-7.61,0,7.68,7.68,0,0,1-2.77-2,8.59,8.59,0,0,1-1.69-3,12.1,12.1,0,0,1-.56-3.73A12.26,12.26,0,0,1,1136.23,137.9Zm3,6.68a6.33,6.33,0,0,0,1.21,2.14,5.47,5.47,0,0,0,6.2,1.32,5.35,5.35,0,0,0,1.81-1.32,6,6,0,0,0,1.21-2.14,10,10,0,0,0,0-5.87,6.29,6.29,0,0,0-1.21-2.16,5.12,5.12,0,0,0-1.81-1.33,5.47,5.47,0,0,0-4.39,0,5.21,5.21,0,0,0-1.81,1.33,6.63,6.63,0,0,0-1.21,2.16,10,10,0,0,0,0,5.87Z"/><path class="cls-2" d="M1171.64,150.71,1168,136.27h-.07l-3.65,14.44H1161l-5.83-18.16h3.31l4.1,14.85h.07l3.66-14.85h3.26l3.8,14.85h.07l4.07-14.85h3.09l-5.79,18.16Z"/><path class="cls-2" d="M1196.29,149.55a8.25,8.25,0,0,1-5.13,1.54,9.26,9.26,0,0,1-3.77-.7,7.4,7.4,0,0,1-2.69-2,8.22,8.22,0,0,1-1.63-3,14.35,14.35,0,0,1-.62-3.83,11,11,0,0,1,.63-3.79,9.16,9.16,0,0,1,1.78-3,8,8,0,0,1,2.7-2,8.25,8.25,0,0,1,3.43-.7,7.44,7.44,0,0,1,4,1,8,8,0,0,1,2.56,2.54,10.06,10.06,0,0,1,1.34,3.38,14.48,14.48,0,0,1,.29,3.47h-13.59a7.37,7.37,0,0,0,.28,2.27,5.25,5.25,0,0,0,1,1.89,5,5,0,0,0,1.79,1.32,6.17,6.17,0,0,0,2.57.49,5.22,5.22,0,0,0,3.11-.87A4.26,4.26,0,0,0,1196,145h3A7.27,7.27,0,0,1,1196.29,149.55Zm-.72-11.66a5.06,5.06,0,0,0-1.09-1.64,5.15,5.15,0,0,0-3.67-1.49,5.2,5.2,0,0,0-2.09.41,4.72,4.72,0,0,0-1.6,1.1,5.43,5.43,0,0,0-1,1.63,6.35,6.35,0,0,0-.46,2H1196A5.91,5.91,0,0,0,1195.57,137.89Z"/><path class="cls-2" d="M1205,132.55v3.83h.07a8.11,8.11,0,0,1,2.67-3.27,6.69,6.69,0,0,1,4-1v3.16a8.37,8.37,0,0,0-3,.49,4.79,4.79,0,0,0-2,1.44,5.82,5.82,0,0,0-1.12,2.3,12.16,12.16,0,0,0-.35,3.11v8.08h-3V132.55Z"/><path class="cls-2" d="M1227.58,125.63V147.9h13.28v2.81h-16.62V125.63Z"/><path class="cls-2" d="M1261.09,125.63v2.81h-14v8h13v2.81h-13v8.68h14.08v2.81h-17.42V125.63Z"/><path class="cls-2" d="M1273.83,125.63q5.81,0,8.92,3t3.13,9a20.17,20.17,0,0,1-.7,5.6,10.51,10.51,0,0,1-2.18,4.11,9.51,9.51,0,0,1-3.76,2.55,15.15,15.15,0,0,1-5.41.88h-8.6V125.63Zm.28,22.27a13.62,13.62,0,0,0,1.41-.09,8.07,8.07,0,0,0,1.79-.42,8.63,8.63,0,0,0,1.88-1,6.24,6.24,0,0,0,1.67-1.72,9.81,9.81,0,0,0,1.21-2.72,14.21,14.21,0,0,0,.47-3.95,16.39,16.39,0,0,0-.44-4,7.58,7.58,0,0,0-1.44-3,6.22,6.22,0,0,0-2.58-1.9,10.3,10.3,0,0,0-3.89-.65h-5.62V147.9Z"/><path class="cls-2" d="M1074,197.18a4.06,4.06,0,0,0-2.88-1,4.73,4.73,0,0,0-3.06.93,6.46,6.46,0,0,0-1.81,2.36,11.26,11.26,0,0,0-.89,3.07,23.46,23.46,0,0,0-.28,3.09l.07.07a6.34,6.34,0,0,1,2.61-2.49,8.69,8.69,0,0,1,6.82-.16,6.8,6.8,0,0,1,2.39,1.7,7.84,7.84,0,0,1,1.49,2.56,9.5,9.5,0,0,1,.52,3.2,10.46,10.46,0,0,1-.42,2.85,7.69,7.69,0,0,1-1.38,2.68,7.34,7.34,0,0,1-2.57,2,8.8,8.8,0,0,1-4,.79,7.9,7.9,0,0,1-4.46-1.12,7.73,7.73,0,0,1-2.6-2.88,11.94,11.94,0,0,1-1.21-3.86,29.06,29.06,0,0,1-.3-4.08,27.93,27.93,0,0,1,.44-5,13.5,13.5,0,0,1,1.49-4.26,8.49,8.49,0,0,1,2.81-3,8.07,8.07,0,0,1,4.43-1.12,7.11,7.11,0,0,1,4.92,1.63,6.93,6.93,0,0,1,2.1,4.72h-3A4.32,4.32,0,0,0,1074,197.18Zm-5.41,8.31a4.78,4.78,0,0,0-2.62,3,7.18,7.18,0,0,0-.33,2.2,6.71,6.71,0,0,0,.35,2.17,5.15,5.15,0,0,0,1,1.76,4.78,4.78,0,0,0,1.62,1.18,5.25,5.25,0,0,0,2.19.44,5,5,0,0,0,2.16-.44,4.59,4.59,0,0,0,1.57-1.22,5.41,5.41,0,0,0,1-1.77,6.63,6.63,0,0,0,.33-2.09,8.21,8.21,0,0,0-.29-2.19,4.72,4.72,0,0,0-.94-1.79,4.59,4.59,0,0,0-1.58-1.22,5.71,5.71,0,0,0-4.42,0Z"/><path class="cls-2" d="M1087.14,214.53v3.9h-3.9v-3.9Z"/><path class="cls-2" d="M1107.23,193.35l7.9,21.07,7.94-21.07h4.56v25.08h-3.16V197.57h-.07l-7.83,20.86h-2.85l-7.83-20.86h-.07v20.86h-3.16V193.35Z"/><path class="cls-2" d="M1132.86,197v-3.65h3V197Zm3,3.27v18.16h-3V200.27Z"/><path class="cls-2" d="M1151.34,203.43a4.55,4.55,0,0,0-3-1,5.57,5.57,0,0,0-2.71.6,5,5,0,0,0-1.74,1.58,6.78,6.78,0,0,0-.93,2.27,12.09,12.09,0,0,0-.28,2.65,10.1,10.1,0,0,0,.3,2.46,6.67,6.67,0,0,0,.93,2.12,4.65,4.65,0,0,0,1.65,1.49,5.61,5.61,0,0,0,5.88-.59,5.3,5.3,0,0,0,1.53-3.27H1156a8.41,8.41,0,0,1-2.51,5.2,7.89,7.89,0,0,1-5.5,1.82,9.54,9.54,0,0,1-3.67-.66,7.11,7.11,0,0,1-2.67-1.9,8.43,8.43,0,0,1-1.62-2.93,12.33,12.33,0,0,1-.54-3.74,13.34,13.34,0,0,1,.53-3.81,8.71,8.71,0,0,1,1.59-3.09,7.61,7.61,0,0,1,2.69-2.08,8.85,8.85,0,0,1,3.76-.75,10.82,10.82,0,0,1,2.9.37,7,7,0,0,1,2.39,1.14,6.18,6.18,0,0,1,1.7,1.95,7.26,7.26,0,0,1,.84,2.79h-3.09A4.56,4.56,0,0,0,1151.34,203.43Z"/><path class="cls-2" d="M1162.05,200.27v3.83h.07a8,8,0,0,1,2.67-3.27,6.68,6.68,0,0,1,4-1V203a8.47,8.47,0,0,0-3.06.49,4.82,4.82,0,0,0-2,1.44,6,6,0,0,0-1.13,2.3,12.62,12.62,0,0,0-.35,3.11v8.08h-3V200.27Z"/><path class="cls-2" d="M1170,205.63a8.5,8.5,0,0,1,1.69-3,7.85,7.85,0,0,1,2.77-2,10.15,10.15,0,0,1,7.61,0,7.77,7.77,0,0,1,2.75,2,8.35,8.35,0,0,1,1.69,3,12.21,12.21,0,0,1,.56,3.74,12.08,12.08,0,0,1-.56,3.72,8.35,8.35,0,0,1-1.69,3,7.61,7.61,0,0,1-2.75,2,10.41,10.41,0,0,1-7.61,0,7.68,7.68,0,0,1-2.77-2,8.5,8.5,0,0,1-1.69-3,12.08,12.08,0,0,1-.56-3.72A12.21,12.21,0,0,1,1170,205.63Zm3,6.67a6.17,6.17,0,0,0,1.21,2.14,5.31,5.31,0,0,0,1.81,1.32,5.47,5.47,0,0,0,4.39,0,5.22,5.22,0,0,0,1.81-1.32,6,6,0,0,0,1.21-2.14,10,10,0,0,0,0-5.87,6.29,6.29,0,0,0-1.21-2.16,5.12,5.12,0,0,0-1.81-1.33,5.47,5.47,0,0,0-4.39,0,5.21,5.21,0,0,0-1.81,1.33,6.46,6.46,0,0,0-1.21,2.16,10,10,0,0,0,0,5.87Z"/><path class="cls-2" d="M1193.65,200.27v2.46h.07a4.53,4.53,0,0,1,2.32-2.2,8.82,8.82,0,0,1,3.48-.68,8.27,8.27,0,0,1,3.67.77,7.51,7.51,0,0,1,2.6,2.09,9.22,9.22,0,0,1,1.56,3,12.44,12.44,0,0,1,.53,3.65,12.73,12.73,0,0,1-.51,3.65,8.69,8.69,0,0,1-1.55,3,7.36,7.36,0,0,1-2.6,2,8.43,8.43,0,0,1-3.63.73,8.27,8.27,0,0,1-1.49-.14,8.17,8.17,0,0,1-1.64-.45,6.58,6.58,0,0,1-1.52-.86,5,5,0,0,1-1.22-1.36h-.07v9.35h-3V200.27Zm10.73,6.45a6.67,6.67,0,0,0-1-2.17,5,5,0,0,0-1.75-1.51,5.4,5.4,0,0,0-2.51-.56,5.14,5.14,0,0,0-2.57.6,5.26,5.26,0,0,0-1.72,1.56,6.72,6.72,0,0,0-1,2.2,10.69,10.69,0,0,0,0,5.07,6.53,6.53,0,0,0,1,2.2,5.07,5.07,0,0,0,1.77,1.53,5.58,5.58,0,0,0,2.63.58,5.14,5.14,0,0,0,2.59-.6,4.84,4.84,0,0,0,1.66-1.58,7.06,7.06,0,0,0,.92-2.25,12.4,12.4,0,0,0,.28-2.6A8.93,8.93,0,0,0,1204.38,206.72Z"/><path class="cls-2" d="M1214.37,193.35v9.59h.07a4,4,0,0,1,1-1.42,5.27,5.27,0,0,1,1.42-1,7.44,7.44,0,0,1,1.65-.55,8.85,8.85,0,0,1,1.67-.17,7.8,7.8,0,0,1,3,.49,5,5,0,0,1,1.94,1.37,5.13,5.13,0,0,1,1,2.09,11.19,11.19,0,0,1,.3,2.69v11.94h-3V206.14a3.58,3.58,0,0,0-1-2.67,3.62,3.62,0,0,0-2.7-1,6.12,6.12,0,0,0-2.37.42,4.45,4.45,0,0,0-1.67,1.2,5,5,0,0,0-1,1.81,7.39,7.39,0,0,0-.34,2.26v10.26h-3V193.35Z"/><path class="cls-2" d="M1230.49,205.63a8.5,8.5,0,0,1,1.69-3,7.85,7.85,0,0,1,2.77-2,10.15,10.15,0,0,1,7.61,0,7.9,7.9,0,0,1,2.76,2,8.48,8.48,0,0,1,1.68,3,11.91,11.91,0,0,1,.56,3.74,11.79,11.79,0,0,1-.56,3.72,8.48,8.48,0,0,1-1.68,3,7.73,7.73,0,0,1-2.76,2,10.41,10.41,0,0,1-7.61,0,7.68,7.68,0,0,1-2.77-2,8.5,8.5,0,0,1-1.69-3,12.08,12.08,0,0,1-.56-3.72A12.21,12.21,0,0,1,1230.49,205.63Zm3,6.67a6.17,6.17,0,0,0,1.21,2.14,5.31,5.31,0,0,0,1.81,1.32,5.47,5.47,0,0,0,4.39,0,5.22,5.22,0,0,0,1.81-1.32,6,6,0,0,0,1.21-2.14,10,10,0,0,0,0-5.87,6.29,6.29,0,0,0-1.21-2.16,5.12,5.12,0,0,0-1.81-1.33,5.47,5.47,0,0,0-4.39,0,5.21,5.21,0,0,0-1.81,1.33,6.46,6.46,0,0,0-1.21,2.16,10,10,0,0,0,0,5.87Z"/><path class="cls-2" d="M1253.88,200.27v2.88h.07a6.29,6.29,0,0,1,5.9-3.3,7.86,7.86,0,0,1,3,.49,4.94,4.94,0,0,1,1.93,1.37,5.14,5.14,0,0,1,1,2.09,11.19,11.19,0,0,1,.3,2.69v11.94h-3V206.14a3.61,3.61,0,0,0-1-2.67,3.66,3.66,0,0,0-2.71-1,6.12,6.12,0,0,0-2.37.42,4.61,4.61,0,0,0-1.67,1.2,5.31,5.31,0,0,0-1,1.81,7.39,7.39,0,0,0-.33,2.26v10.26h-3V200.27Z"/><path class="cls-2" d="M1283.45,217.27a8.2,8.2,0,0,1-5.12,1.54,9.34,9.34,0,0,1-3.78-.7,7.48,7.48,0,0,1-2.69-2,8.29,8.29,0,0,1-1.63-3,14.34,14.34,0,0,1-.61-3.82,11,11,0,0,1,.63-3.8,9.07,9.07,0,0,1,1.77-3,8.08,8.08,0,0,1,6.13-2.67,7.4,7.4,0,0,1,4,1,8,8,0,0,1,2.57,2.55,10,10,0,0,1,1.33,3.37,14.05,14.05,0,0,1,.3,3.47h-13.59a7,7,0,0,0,.28,2.27,5.14,5.14,0,0,0,1,1.9,4.9,4.9,0,0,0,1.79,1.31,6.12,6.12,0,0,0,2.56.5,5.2,5.2,0,0,0,3.11-.88,4.27,4.27,0,0,0,1.6-2.67h2.95A7.28,7.28,0,0,1,1283.45,217.27Zm-.72-11.66a5,5,0,0,0-1.08-1.63,5.19,5.19,0,0,0-1.62-1.09,5.07,5.07,0,0,0-2-.41,5.16,5.16,0,0,0-2.09.41,4.91,4.91,0,0,0-1.6,1.1,5.32,5.32,0,0,0-1.06,1.64,6.22,6.22,0,0,0-.45,2h10.43A6.17,6.17,0,0,0,1282.73,205.61Z"/><path class="cls-2" d="M98.68,203.85h1a6,6,0,0,0,1.81-.26,4.58,4.58,0,0,0,1.51-.77,3.72,3.72,0,0,0,1-1.28,3.86,3.86,0,0,0,.39-1.76,3.6,3.6,0,0,0-1.27-3,4.92,4.92,0,0,0-3.16-1,4.6,4.6,0,0,0-2.09.44,4.06,4.06,0,0,0-1.47,1.17,4.8,4.8,0,0,0-.86,1.72,7.45,7.45,0,0,0-.29,2.07h-3a11.39,11.39,0,0,1,.58-3.26,7.1,7.1,0,0,1,1.46-2.53,6.56,6.56,0,0,1,2.37-1.65,8.38,8.38,0,0,1,3.28-.6,10.61,10.61,0,0,1,3,.41,6.92,6.92,0,0,1,2.41,1.21,5.6,5.6,0,0,1,1.6,2.07,7.2,7.2,0,0,1,.58,3,4.8,4.8,0,0,1-1,3,6.23,6.23,0,0,1-2.46,2v.07a5.16,5.16,0,0,1,3.39,2.14,6.82,6.82,0,0,1,1.11,3.9,7.57,7.57,0,0,1-.68,3.28,6.91,6.91,0,0,1-1.85,2.37,7.75,7.75,0,0,1-2.72,1.42,11.25,11.25,0,0,1-3.32.48,10.66,10.66,0,0,1-3.44-.53A7,7,0,0,1,94,216.34a6.7,6.7,0,0,1-1.67-2.55,9,9,0,0,1-.55-3.44h3a6,6,0,0,0,1.4,4,4.9,4.9,0,0,0,3.9,1.53,6.41,6.41,0,0,0,2.07-.33,5.41,5.41,0,0,0,1.72-.95A4.48,4.48,0,0,0,105,213a4.57,4.57,0,0,0,.44-2A4.83,4.83,0,0,0,105,209a4.61,4.61,0,0,0-1.13-1.51,4.54,4.54,0,0,0-1.66-.91,7.09,7.09,0,0,0-2.09-.3,14.62,14.62,0,0,0-1.8.11v-2.53Z"/><path class="cls-2" d="M117.05,214.14V218h-3.9v-3.9Z"/><path class="cls-2" d="M141.6,193h1.74c.62,0,1.23.05,1.84.11a15.63,15.63,0,0,1,1.7.26,4.54,4.54,0,0,1,1.36.53,6.42,6.42,0,0,1,2.08,2,5.59,5.59,0,0,1,.87,3.19,6.14,6.14,0,0,1-1,3.46,5.68,5.68,0,0,1-2.76,2.16v.07a5.77,5.77,0,0,1,3.55,2.11,6.31,6.31,0,0,1,1.23,3.93,7.61,7.61,0,0,1-.49,2.67,6.78,6.78,0,0,1-1.46,2.3,7.21,7.21,0,0,1-2.39,1.62,8.2,8.2,0,0,1-3.28.61H132.5V193Zm.91,10.78a6.61,6.61,0,0,0,4.09-1,3.64,3.64,0,0,0,1.25-3,4.42,4.42,0,0,0-.42-2.1,3,3,0,0,0-1.16-1.2,4.53,4.53,0,0,0-1.7-.54,16.8,16.8,0,0,0-2.06-.12h-6.67v8Zm1.69,11.48a4.85,4.85,0,0,0,3.46-1.19,4.37,4.37,0,0,0,1.24-3.3,4.16,4.16,0,0,0-.45-2,3.49,3.49,0,0,0-1.22-1.28,5,5,0,0,0-1.73-.67,10.53,10.53,0,0,0-2-.19h-7.62v8.67Z"/><path class="cls-2" d="M155.65,205.24a8.42,8.42,0,0,1,1.68-3,8,8,0,0,1,2.78-2,10.13,10.13,0,0,1,7.6,0,8,8,0,0,1,2.76,2,8.42,8.42,0,0,1,1.68,3,12,12,0,0,1,.56,3.74,11.7,11.7,0,0,1-.56,3.72,8.46,8.46,0,0,1-1.68,3,7.85,7.85,0,0,1-2.76,2,10.39,10.39,0,0,1-7.6,0,7.84,7.84,0,0,1-2.78-2,8.46,8.46,0,0,1-1.68-3,11.7,11.7,0,0,1-.57-3.72A12,12,0,0,1,155.65,205.24Zm3,6.67a6.23,6.23,0,0,0,1.22,2.15,5.16,5.16,0,0,0,1.8,1.31,5.36,5.36,0,0,0,2.2.46,5.28,5.28,0,0,0,2.19-.46,5.19,5.19,0,0,0,1.81-1.31,6.06,6.06,0,0,0,1.21-2.15,10,10,0,0,0,0-5.86,6.11,6.11,0,0,0-1.21-2.16,5.15,5.15,0,0,0-1.81-1.34,5.43,5.43,0,0,0-2.19-.45,5.52,5.52,0,0,0-2.2.45,5.12,5.12,0,0,0-1.8,1.34,6.28,6.28,0,0,0-1.22,2.16,10,10,0,0,0,0,5.86Z"/><path class="cls-2" d="M175.8,205.24a8.59,8.59,0,0,1,1.69-3,8,8,0,0,1,2.77-2,10.15,10.15,0,0,1,7.61,0,7.89,7.89,0,0,1,2.75,2,8.44,8.44,0,0,1,1.69,3,12,12,0,0,1,.56,3.74,11.7,11.7,0,0,1-.56,3.72,8.48,8.48,0,0,1-1.69,3,7.72,7.72,0,0,1-2.75,2,10.41,10.41,0,0,1-7.61,0,7.8,7.8,0,0,1-2.77-2,8.63,8.63,0,0,1-1.69-3,12,12,0,0,1-.56-3.72A12.26,12.26,0,0,1,175.8,205.24Zm3,6.67a6.22,6.22,0,0,0,1.21,2.15,5.43,5.43,0,0,0,6.2,1.31,5.19,5.19,0,0,0,1.81-1.31,6.06,6.06,0,0,0,1.21-2.15,10,10,0,0,0,0-5.86,6.11,6.11,0,0,0-1.21-2.16,5.15,5.15,0,0,0-1.81-1.34,5.58,5.58,0,0,0-4.39,0,5.24,5.24,0,0,0-1.81,1.34,6.27,6.27,0,0,0-1.21,2.16,10,10,0,0,0,0,5.86Z"/><path class="cls-2" d="M204.15,199.89v2.63h-3.62v11.27a3.24,3.24,0,0,0,.09.85.85.85,0,0,0,.33.49,1.59,1.59,0,0,0,.68.23c.3,0,.68,0,1.15,0h1.37V218h-2.29a10.29,10.29,0,0,1-2-.16,2.8,2.8,0,0,1-1.34-.58,2.4,2.4,0,0,1-.75-1.19,6.65,6.65,0,0,1-.25-2V202.52h-3.09v-2.63h3.09v-5.45h3v5.45Z"/><path class="cls-2" d="M222.34,193l7.9,21.07L238.18,193h4.56V218h-3.16V197.18h-.07L231.68,218h-2.85L221,197.18h-.07V218h-3.16V193Z"/><path class="cls-2" d="M247.38,205.24a8.42,8.42,0,0,1,1.68-3,8,8,0,0,1,2.78-2,10.13,10.13,0,0,1,7.6,0,8,8,0,0,1,2.76,2,8.42,8.42,0,0,1,1.68,3,12,12,0,0,1,.57,3.74,11.7,11.7,0,0,1-.57,3.72,8.46,8.46,0,0,1-1.68,3,7.85,7.85,0,0,1-2.76,2,10.39,10.39,0,0,1-7.6,0,7.84,7.84,0,0,1-2.78-2,8.46,8.46,0,0,1-1.68-3,11.7,11.7,0,0,1-.56-3.72A12,12,0,0,1,247.38,205.24Zm3,6.67a6.06,6.06,0,0,0,1.21,2.15,5.1,5.1,0,0,0,1.81,1.31,5.47,5.47,0,0,0,4.39,0,5.16,5.16,0,0,0,1.8-1.31,6.23,6.23,0,0,0,1.22-2.15,10.2,10.2,0,0,0,0-5.86,6.28,6.28,0,0,0-1.22-2.16,5.12,5.12,0,0,0-1.8-1.34,5.58,5.58,0,0,0-4.39,0,5.06,5.06,0,0,0-1.81,1.34,6.11,6.11,0,0,0-1.21,2.16,10,10,0,0,0,0,5.86Z"/><path class="cls-2" d="M281.2,218v-2.46h-.07a4.38,4.38,0,0,1-2.32,2.18,8.74,8.74,0,0,1-3.48.67,8.27,8.27,0,0,1-3.67-.77,7.6,7.6,0,0,1-2.6-2.08,8.93,8.93,0,0,1-1.56-3,12.39,12.39,0,0,1-.53-3.65,12.78,12.78,0,0,1,.51-3.65,8.55,8.55,0,0,1,1.55-3,7.38,7.38,0,0,1,2.6-2,8.29,8.29,0,0,1,3.63-.76,9.22,9.22,0,0,1,1.51.14,8.29,8.29,0,0,1,1.62.48,6.52,6.52,0,0,1,1.53.88,4.77,4.77,0,0,1,1.21,1.35h.07V193h3V218Zm-10.73-6.44a6.52,6.52,0,0,0,1,2.16,5,5,0,0,0,1.75,1.51,5.4,5.4,0,0,0,2.51.56,5.14,5.14,0,0,0,2.57-.6,5.26,5.26,0,0,0,1.72-1.56,6.43,6.43,0,0,0,1-2.2,10.69,10.69,0,0,0,0-5.07,6.6,6.6,0,0,0-1-2.2,5.06,5.06,0,0,0-1.78-1.52,5.47,5.47,0,0,0-2.63-.58,5.25,5.25,0,0,0-2.57.59,4.75,4.75,0,0,0-1.68,1.59,6.68,6.68,0,0,0-.91,2.24,11.84,11.84,0,0,0-.29,2.6A9.45,9.45,0,0,0,270.47,211.6Z"/><path class="cls-2" d="M301.64,216.88a8.26,8.26,0,0,1-5.13,1.55,9.51,9.51,0,0,1-3.78-.7,7.48,7.48,0,0,1-2.68-2,8.39,8.39,0,0,1-1.64-3,14.83,14.83,0,0,1-.61-3.83,11,11,0,0,1,.63-3.79,9,9,0,0,1,1.78-3,8,8,0,0,1,2.7-2,8.21,8.21,0,0,1,3.42-.71,7.55,7.55,0,0,1,4,1,8.1,8.1,0,0,1,2.56,2.55,10.07,10.07,0,0,1,1.33,3.37,14.13,14.13,0,0,1,.3,3.48H291a7.27,7.27,0,0,0,.28,2.26,5.07,5.07,0,0,0,1,1.9,5.12,5.12,0,0,0,1.79,1.32,6.16,6.16,0,0,0,2.56.49,5.11,5.11,0,0,0,3.11-.88,4.22,4.22,0,0,0,1.6-2.67h2.95A7.28,7.28,0,0,1,301.64,216.88Zm-.72-11.66a5.12,5.12,0,0,0-1.09-1.63,5.19,5.19,0,0,0-1.62-1.09,5.07,5.07,0,0,0-2-.4,5.19,5.19,0,0,0-2.09.4,4.89,4.89,0,0,0-1.6,1.11,5.25,5.25,0,0,0-1.05,1.63,6.22,6.22,0,0,0-.46,2h10.43A6.21,6.21,0,0,0,300.92,205.22Z"/><path class="cls-2" d="M327,193h1.74c.62,0,1.24.05,1.85.11a16,16,0,0,1,1.7.26,4.38,4.38,0,0,1,1.35.53,6.45,6.45,0,0,1,2.09,2,5.59,5.59,0,0,1,.86,3.19,6.13,6.13,0,0,1-1,3.46,5.77,5.77,0,0,1-2.76,2.16v.07a5.79,5.79,0,0,1,3.55,2.11,6.31,6.31,0,0,1,1.23,3.93,7.4,7.4,0,0,1-.5,2.67,6.6,6.6,0,0,1-1.45,2.3,7.31,7.31,0,0,1-2.39,1.62A8.22,8.22,0,0,1,330,218H317.9V193Zm.92,10.78a6.63,6.63,0,0,0,4.09-1,3.64,3.64,0,0,0,1.25-3,4.29,4.29,0,0,0-.43-2.1,3,3,0,0,0-1.15-1.2,4.58,4.58,0,0,0-1.71-.54,16.63,16.63,0,0,0-2-.12h-6.68v8Zm1.68,11.48a4.81,4.81,0,0,0,3.46-1.19,4.37,4.37,0,0,0,1.25-3.3,4.05,4.05,0,0,0-.46-2,3.47,3.47,0,0,0-1.21-1.28,5,5,0,0,0-1.74-.67,10.36,10.36,0,0,0-2-.19h-7.63v8.67Z"/><path class="cls-2" d="M353.69,218v-2.88h-.07a6.11,6.11,0,0,1-2.43,2.48,7.2,7.2,0,0,1-3.47.79,8.07,8.07,0,0,1-3-.48,4.61,4.61,0,0,1-1.93-1.35,5.08,5.08,0,0,1-1-2.09,11.16,11.16,0,0,1-.3-2.68V199.89h3v12.29a3.64,3.64,0,0,0,1,2.67,3.69,3.69,0,0,0,2.71,1,6.12,6.12,0,0,0,2.37-.42,4.5,4.5,0,0,0,1.67-1.2,5.26,5.26,0,0,0,1-1.8,7.46,7.46,0,0,0,.33-2.27V199.89h3V218Z"/><path class="cls-2" d="M368.75,199.89v2.63h-3.62v11.27a3.24,3.24,0,0,0,.09.85.86.86,0,0,0,.34.49,1.59,1.59,0,0,0,.68.23,11.31,11.31,0,0,0,1.14,0h1.37V218h-2.28a10.4,10.4,0,0,1-2-.16,2.76,2.76,0,0,1-1.33-.58,2.4,2.4,0,0,1-.75-1.19,6.65,6.65,0,0,1-.25-2V202.52h-3.09v-2.63h3.09v-5.45h3v5.45Z"/><path class="cls-2" d="M379.81,199.89v2.63H376.2v11.27a3.82,3.82,0,0,0,.08.85.86.86,0,0,0,.34.49,1.59,1.59,0,0,0,.68.23c.3,0,.68,0,1.14,0h1.37V218h-2.28a10.29,10.29,0,0,1-2-.16,2.8,2.8,0,0,1-1.34-.58,2.4,2.4,0,0,1-.75-1.19,6.65,6.65,0,0,1-.25-2V202.52h-3.09v-2.63h3.09v-5.45h3v5.45Z"/><path class="cls-2" d="M382.69,205.24a8.59,8.59,0,0,1,1.69-3,8,8,0,0,1,2.77-2,10.15,10.15,0,0,1,7.61,0,7.89,7.89,0,0,1,2.75,2,8.44,8.44,0,0,1,1.69,3,12.26,12.26,0,0,1,.56,3.74,12,12,0,0,1-.56,3.72,8.48,8.48,0,0,1-1.69,3,7.72,7.72,0,0,1-2.75,2,10.41,10.41,0,0,1-7.61,0,7.8,7.8,0,0,1-2.77-2,8.63,8.63,0,0,1-1.69-3,12,12,0,0,1-.56-3.72A12.26,12.26,0,0,1,382.69,205.24Zm3,6.67a6.22,6.22,0,0,0,1.21,2.15,5.43,5.43,0,0,0,6.2,1.31,5.19,5.19,0,0,0,1.81-1.31,6.06,6.06,0,0,0,1.21-2.15,10,10,0,0,0,0-5.86,6.11,6.11,0,0,0-1.21-2.16,5.15,5.15,0,0,0-1.81-1.34,5.58,5.58,0,0,0-4.39,0,5.24,5.24,0,0,0-1.81,1.34,6.27,6.27,0,0,0-1.21,2.16,10,10,0,0,0,0,5.86Z"/><path class="cls-2" d="M406.08,199.89v2.87h.07a6.29,6.29,0,0,1,5.9-3.3,7.84,7.84,0,0,1,3,.5,4.81,4.81,0,0,1,1.93,1.37,5.1,5.1,0,0,1,1,2.08,11.24,11.24,0,0,1,.3,2.69V218h-3V205.75a3.64,3.64,0,0,0-1-2.67,3.69,3.69,0,0,0-2.71-1,6.12,6.12,0,0,0-2.37.42,4.51,4.51,0,0,0-1.67,1.19,5.41,5.41,0,0,0-1,1.81,7.46,7.46,0,0,0-.33,2.27V218h-3V199.89Z"/><path class="cls-2" d="M177.88,785.59A7.05,7.05,0,0,1,182,781a8.69,8.69,0,0,1,3.51-.67,9.77,9.77,0,0,1,3,.47,7.61,7.61,0,0,1,2.47,1.37,6.45,6.45,0,0,1,1.67,2.23,7.31,7.31,0,0,1,.62,3.09,7.8,7.8,0,0,1-.51,2.92,8.05,8.05,0,0,1-1.36,2.26,11.09,11.09,0,0,1-1.93,1.81c-.72.54-1.47,1.06-2.25,1.55l-2.31,1.38a19.38,19.38,0,0,0-2.13,1.46,10,10,0,0,0-1.65,1.67,4.68,4.68,0,0,0-.89,2h12.78v2.64H176.79a13.37,13.37,0,0,1,.79-3.78,10.13,10.13,0,0,1,1.56-2.72,12.15,12.15,0,0,1,2.14-2c.8-.58,1.63-1.13,2.5-1.65,1.05-.65,2-1.25,2.77-1.8a12.41,12.41,0,0,0,2-1.67,6.06,6.06,0,0,0,1.19-1.83,6,6,0,0,0,.4-2.28,4.28,4.28,0,0,0-.38-1.85,4.46,4.46,0,0,0-1-1.42,4.35,4.35,0,0,0-1.53-.91,5.42,5.42,0,0,0-1.86-.32,4.29,4.29,0,0,0-2.23.55,4.5,4.5,0,0,0-1.52,1.42,6,6,0,0,0-.87,2,8.41,8.41,0,0,0-.22,2.23h-3A10,10,0,0,1,177.88,785.59Z"/><path class="cls-2" d="M202.29,801.29v3.9h-3.9v-3.9Z"/><path class="cls-2" d="M229.54,780.11a8.26,8.26,0,0,1,5.6,1.76,6,6,0,0,1,2,4.81,7.5,7.5,0,0,1-1,4,5.31,5.31,0,0,1-3.31,2.36v.07a4.47,4.47,0,0,1,1.77.7,3.82,3.82,0,0,1,1.09,1.18,5.25,5.25,0,0,1,.6,1.52c.12.57.22,1.15.29,1.76s.09,1.23.11,1.86a16.27,16.27,0,0,0,.17,1.86,11.64,11.64,0,0,0,.41,1.74,4.21,4.21,0,0,0,.79,1.46h-3.72a2,2,0,0,1-.48-1.05,12.56,12.56,0,0,1-.16-1.5c0-.55,0-1.14-.07-1.77a11.51,11.51,0,0,0-.21-1.86,17.26,17.26,0,0,0-.35-1.74,4,4,0,0,0-.67-1.44,3.19,3.19,0,0,0-1.19-1,4.38,4.38,0,0,0-2-.37h-8.14v10.71h-3.34V780.11Zm.7,11.38a4.76,4.76,0,0,0,1.85-.68,3.87,3.87,0,0,0,1.26-1.37,4.58,4.58,0,0,0,.47-2.23,4.49,4.49,0,0,0-1-3.09,4.32,4.32,0,0,0-3.41-1.2h-8.28v8.75H228A13.1,13.1,0,0,0,230.24,791.49Z"/><path class="cls-2" d="M254.16,804a8.26,8.26,0,0,1-5.13,1.55,9.26,9.26,0,0,1-3.77-.71,7.4,7.4,0,0,1-2.69-2,8.31,8.31,0,0,1-1.63-3,14.41,14.41,0,0,1-.62-3.83,11,11,0,0,1,.63-3.8,9.27,9.27,0,0,1,1.78-3,8.11,8.11,0,0,1,2.7-2,8.38,8.38,0,0,1,3.43-.7,7.44,7.44,0,0,1,4,1,8,8,0,0,1,2.56,2.55,10,10,0,0,1,1.33,3.37,14.13,14.13,0,0,1,.3,3.48H243.48a7.3,7.3,0,0,0,.28,2.26,5.07,5.07,0,0,0,1,1.9,5,5,0,0,0,1.79,1.31,6.17,6.17,0,0,0,2.57.5,5.17,5.17,0,0,0,3.1-.88,4.27,4.27,0,0,0,1.6-2.67h3A7.24,7.24,0,0,1,254.16,804Zm-.72-11.66a5,5,0,0,0-1.09-1.63,5.15,5.15,0,0,0-3.67-1.5,5.2,5.2,0,0,0-2.09.41,5,5,0,0,0-1.6,1.1,5.48,5.48,0,0,0-1.05,1.64,6.23,6.23,0,0,0-.46,2h10.43A5.91,5.91,0,0,0,253.44,792.37Z"/><path class="cls-2" d="M262.45,801.13a3.19,3.19,0,0,0,1.1,1.09,5,5,0,0,0,1.55.58,8.57,8.57,0,0,0,1.77.18,11.11,11.11,0,0,0,1.48-.11,5.3,5.3,0,0,0,1.42-.39,2.63,2.63,0,0,0,1.07-.82,2.21,2.21,0,0,0,.42-1.39,2,2,0,0,0-.88-1.75,7.41,7.41,0,0,0-2.19-1c-.88-.25-1.83-.47-2.86-.67a15.26,15.26,0,0,1-2.87-.84,5.93,5.93,0,0,1-2.19-1.53,3.94,3.94,0,0,1-.88-2.74,4.36,4.36,0,0,1,.62-2.35,4.93,4.93,0,0,1,1.58-1.6,7.27,7.27,0,0,1,2.17-.91,10,10,0,0,1,2.41-.3,14.68,14.68,0,0,1,2.84.26,6.59,6.59,0,0,1,2.31.92,4.72,4.72,0,0,1,1.59,1.75,6.51,6.51,0,0,1,.7,2.76h-3a3.07,3.07,0,0,0-.46-1.46,3,3,0,0,0-1-.93,4.77,4.77,0,0,0-1.32-.51,7.08,7.08,0,0,0-1.45-.16,9,9,0,0,0-1.36.11,4.37,4.37,0,0,0-1.24.37,2.5,2.5,0,0,0-.92.7,1.78,1.78,0,0,0-.35,1.14,1.64,1.64,0,0,0,.55,1.28,4.26,4.26,0,0,0,1.38.85,12.59,12.59,0,0,0,1.9.56l2.11.47q1.13.25,2.19.6a6.86,6.86,0,0,1,1.9.93,4.54,4.54,0,0,1,1.33,1.46,4.26,4.26,0,0,1,.51,2.18,5.13,5.13,0,0,1-.68,2.74,5.44,5.44,0,0,1-1.79,1.75,7.27,7.27,0,0,1-2.5.93,14.32,14.32,0,0,1-2.75.27,12.77,12.77,0,0,1-2.88-.32,7.1,7.1,0,0,1-2.43-1,5.29,5.29,0,0,1-1.68-1.89,6.53,6.53,0,0,1-.7-2.87h3A3.31,3.31,0,0,0,262.45,801.13Z"/><path class="cls-2" d="M290.58,804a8.26,8.26,0,0,1-5.13,1.55,9.26,9.26,0,0,1-3.77-.71,7.4,7.4,0,0,1-2.69-2,8.31,8.31,0,0,1-1.63-3,14.41,14.41,0,0,1-.62-3.83,11,11,0,0,1,.63-3.8,9.27,9.27,0,0,1,1.78-3,8.11,8.11,0,0,1,2.7-2,8.38,8.38,0,0,1,3.43-.7,7.44,7.44,0,0,1,4,1,8,8,0,0,1,2.56,2.55,10,10,0,0,1,1.33,3.37,14.13,14.13,0,0,1,.3,3.48H279.9a7.3,7.3,0,0,0,.28,2.26,5.07,5.07,0,0,0,1,1.9,5,5,0,0,0,1.79,1.31,6.17,6.17,0,0,0,2.57.5,5.17,5.17,0,0,0,3.1-.88,4.27,4.27,0,0,0,1.6-2.67h2.95A7.24,7.24,0,0,1,290.58,804Zm-.72-11.66a5,5,0,0,0-1.09-1.63,5.19,5.19,0,0,0-1.62-1.09,5.07,5.07,0,0,0-2-.41,5.2,5.2,0,0,0-2.09.41,5,5,0,0,0-1.6,1.1,5.48,5.48,0,0,0-1.05,1.64,6.23,6.23,0,0,0-.46,2h10.43A5.91,5.91,0,0,0,289.86,792.37Z"/><path class="cls-2" d="M304.35,787v2.64h-3.62v11.27a3.16,3.16,0,0,0,.09.84.82.82,0,0,0,.33.49,1.36,1.36,0,0,0,.68.23,9.23,9.23,0,0,0,1.15,0h1.37v2.64h-2.29a10.29,10.29,0,0,1-2-.16,2.89,2.89,0,0,1-1.34-.58,2.44,2.44,0,0,1-.75-1.19,6.74,6.74,0,0,1-.25-2V789.67h-3.09V787h3.09v-5.44h3V787Z"/><path class="cls-2" d="M327,780.11l1.74,0c.62,0,1.23,0,1.84.11a11.91,11.91,0,0,1,1.7.26,4.29,4.29,0,0,1,1.36.53,6.62,6.62,0,0,1,2.09,2,5.7,5.7,0,0,1,.86,3.2,6.16,6.16,0,0,1-1,3.46,5.68,5.68,0,0,1-2.76,2.16V792a5.77,5.77,0,0,1,3.55,2.11,6.27,6.27,0,0,1,1.23,3.93,7.47,7.47,0,0,1-.49,2.67,6.87,6.87,0,0,1-1.46,2.3,7.19,7.19,0,0,1-2.39,1.61,8.2,8.2,0,0,1-3.28.62H317.9V780.11Zm.91,10.78a6.55,6.55,0,0,0,4.09-1,3.6,3.6,0,0,0,1.25-3,4.46,4.46,0,0,0-.42-2.11,3,3,0,0,0-1.16-1.19,4.53,4.53,0,0,0-1.7-.54,15,15,0,0,0-2.06-.13h-6.67v8Zm1.69,11.49a4.79,4.79,0,0,0,3.46-1.2,4.34,4.34,0,0,0,1.24-3.3,4.12,4.12,0,0,0-.45-2,3.66,3.66,0,0,0-1.21-1.29,5.33,5.33,0,0,0-1.74-.66,10.53,10.53,0,0,0-2-.2h-7.62v8.68Z"/><path class="cls-2" d="M353.69,805.19v-2.88h-.07a6.07,6.07,0,0,1-2.42,2.47,7.27,7.27,0,0,1-3.48.8,8.07,8.07,0,0,1-3-.48,4.87,4.87,0,0,1-1.93-1.35,5.13,5.13,0,0,1-1-2.09,11.19,11.19,0,0,1-.3-2.69V787h3v12.29a3.58,3.58,0,0,0,1,2.67,3.62,3.62,0,0,0,2.7,1,5.94,5.94,0,0,0,2.37-.43,4.4,4.4,0,0,0,1.67-1.19,5.15,5.15,0,0,0,1-1.81,7.39,7.39,0,0,0,.33-2.26V787h3v18.16Z"/><path class="cls-2" d="M368.76,787v2.64h-3.62v11.27a3.16,3.16,0,0,0,.09.84.82.82,0,0,0,.33.49,1.36,1.36,0,0,0,.68.23,9.23,9.23,0,0,0,1.15,0h1.37v2.64h-2.29a10.29,10.29,0,0,1-2-.16,2.89,2.89,0,0,1-1.34-.58,2.52,2.52,0,0,1-.75-1.19,6.74,6.74,0,0,1-.25-2V789.67h-3.09V787h3.09v-5.44h3V787Z"/><path class="cls-2" d="M379.82,787v2.64H376.2v11.27a3.16,3.16,0,0,0,.09.84.86.86,0,0,0,.33.49,1.4,1.4,0,0,0,.69.23,9,9,0,0,0,1.14,0h1.37v2.64h-2.28a10.33,10.33,0,0,1-2-.16,2.86,2.86,0,0,1-1.33-.58,2.53,2.53,0,0,1-.76-1.19,7.12,7.12,0,0,1-.24-2V789.67h-3.09V787h3.09v-5.44h3V787Z"/><path class="cls-2" d="M382.7,792.39a8.33,8.33,0,0,1,1.68-3,7.89,7.89,0,0,1,2.78-2,10.13,10.13,0,0,1,7.6,0,7.9,7.9,0,0,1,2.76,2,8.33,8.33,0,0,1,1.68,3,11.91,11.91,0,0,1,.57,3.74,11.79,11.79,0,0,1-.57,3.72,8.33,8.33,0,0,1-1.68,3,7.61,7.61,0,0,1-2.76,2,10.26,10.26,0,0,1-7.6,0,7.6,7.6,0,0,1-2.78-2,8.33,8.33,0,0,1-1.68-3,11.79,11.79,0,0,1-.56-3.72A11.91,11.91,0,0,1,382.7,792.39Zm3,6.67A5.93,5.93,0,0,0,387,801.2a5.1,5.1,0,0,0,1.81,1.32,5.47,5.47,0,0,0,4.39,0,5.06,5.06,0,0,0,1.8-1.32,6.09,6.09,0,0,0,1.22-2.14,10,10,0,0,0,0-5.86A6.28,6.28,0,0,0,395,791a5.12,5.12,0,0,0-1.8-1.34,5.47,5.47,0,0,0-4.39,0A5.15,5.15,0,0,0,387,791a6.11,6.11,0,0,0-1.21,2.16,10,10,0,0,0,0,5.86Z"/><path class="cls-2" d="M406.09,787v2.88h.07a6.28,6.28,0,0,1,5.9-3.3,7.8,7.8,0,0,1,3,.49,4.94,4.94,0,0,1,1.93,1.37,5,5,0,0,1,1,2.09,11.19,11.19,0,0,1,.3,2.69v11.94h-3V792.9a3.57,3.57,0,0,0-1-2.67,3.65,3.65,0,0,0-2.7-1,6,6,0,0,0-2.37.43,4.43,4.43,0,0,0-1.67,1.19,5.08,5.08,0,0,0-1,1.81,7.09,7.09,0,0,0-.34,2.26v10.26h-3V787Z"/><path class="cls-2" d="M74.06,984.13a5,5,0,0,0,3.09,1,4.45,4.45,0,0,0,4.11-2.37c.92-1.59,1.42-4,1.51-7.26l-.07-.07a6.32,6.32,0,0,1-2.38,2.51,6.47,6.47,0,0,1-3.38.93,8.73,8.73,0,0,1-3.37-.61,6.94,6.94,0,0,1-2.47-1.7,7,7,0,0,1-1.51-2.64,10.68,10.68,0,0,1-.51-3.37,8.7,8.7,0,0,1,.59-3.28,7.42,7.42,0,0,1,1.69-2.57A7.53,7.53,0,0,1,74,963a8.85,8.85,0,0,1,3.3-.6,9.93,9.93,0,0,1,3.3.54,6.47,6.47,0,0,1,2.71,1.88,9.77,9.77,0,0,1,1.84,3.64,20.74,20.74,0,0,1,.68,5.84q0,6.46-2.05,9.93a7.1,7.1,0,0,1-6.59,3.46A8.27,8.27,0,0,1,72,986.13a6.38,6.38,0,0,1-2.36-4.81h3A3.81,3.81,0,0,0,74.06,984.13Zm7.85-15.56a5.51,5.51,0,0,0-1-1.8,4.57,4.57,0,0,0-1.6-1.25,5.1,5.1,0,0,0-2.21-.46,4.91,4.91,0,0,0-2.27.49,4.29,4.29,0,0,0-1.51,1.32,5.84,5.84,0,0,0-.84,1.88,8.86,8.86,0,0,0-.26,2.21,5.3,5.3,0,0,0,.37,2,5.49,5.49,0,0,0,1,1.68,4.84,4.84,0,0,0,1.55,1.18,4.49,4.49,0,0,0,2,.44,4.9,4.9,0,0,0,3.73-1.63,5.49,5.49,0,0,0,1-1.76,6.37,6.37,0,0,0,.35-2.09A6.77,6.77,0,0,0,81.91,968.57Z"/><path class="cls-2" d="M94.22,983.43v3.9h-3.9v-3.9Z"/><path class="cls-2" d="M113.4,965.48l-1.34,7.17.07.07a4.8,4.8,0,0,1,2.09-1.35,7.69,7.69,0,0,1,2.55-.44,9.3,9.3,0,0,1,3.13.52,7,7,0,0,1,2.56,1.6,7.64,7.64,0,0,1,1.72,2.67,10.17,10.17,0,0,1,.63,3.74,8.94,8.94,0,0,1-.54,3.07,7.62,7.62,0,0,1-4.36,4.5,9.74,9.74,0,0,1-3.81.69,9.34,9.34,0,0,1-3-.48,7.88,7.88,0,0,1-2.52-1.37,6.45,6.45,0,0,1-1.72-2.23,7.32,7.32,0,0,1-.66-3h3a5,5,0,0,0,.47,1.77,4.72,4.72,0,0,0,2.71,2.39,5.84,5.84,0,0,0,2,.34,5.7,5.7,0,0,0,2-.37,4.69,4.69,0,0,0,1.69-1.11,5.32,5.32,0,0,0,1.14-1.84,7.27,7.27,0,0,0,.42-2.58,6.19,6.19,0,0,0-.4-2.27,5.27,5.27,0,0,0-1.14-1.79,5.33,5.33,0,0,0-1.78-1.18,6,6,0,0,0-2.3-.42,5.21,5.21,0,0,0-2.61.65,7.13,7.13,0,0,0-2,1.7l-2.57-.14,2.32-12.92h12.29v2.63Z"/><path class="cls-2" d="M135.28,987.33l-8.82-25.08H130L137.21,984h.07l7.23-21.74H148l-8.92,25.08Z"/><path class="cls-2" d="M163.9,962.25v25.08h-3.34V962.25Z"/><path class="cls-2" d="M171.84,969.17v2.88h.07a6.28,6.28,0,0,1,5.9-3.3,7.8,7.8,0,0,1,3,.49,4.94,4.94,0,0,1,1.93,1.37,5,5,0,0,1,1,2.09,11.19,11.19,0,0,1,.3,2.69v11.94h-3V975a3.57,3.57,0,0,0-1-2.67,3.65,3.65,0,0,0-2.7-1,6.05,6.05,0,0,0-2.37.42,4.45,4.45,0,0,0-1.67,1.2,5,5,0,0,0-1,1.81,7.09,7.09,0,0,0-.34,2.26v10.26h-3V969.17Z"/><path class="cls-2" d="M191.64,969.17v2.46h.07a4.53,4.53,0,0,1,2.32-2.2,8.82,8.82,0,0,1,3.48-.68,8.27,8.27,0,0,1,3.67.77,7.51,7.51,0,0,1,2.6,2.09,9.22,9.22,0,0,1,1.56,3,12.44,12.44,0,0,1,.53,3.65,12.85,12.85,0,0,1-.51,3.66,8.73,8.73,0,0,1-1.55,3,7.25,7.25,0,0,1-2.6,2,8.43,8.43,0,0,1-3.63.74,8.35,8.35,0,0,1-1.49-.15,8.17,8.17,0,0,1-1.64-.45,6.58,6.58,0,0,1-1.52-.86,5.09,5.09,0,0,1-1.22-1.35h-.07v9.34h-3V969.17Zm10.73,6.45a6.71,6.71,0,0,0-1-2.16A4.94,4.94,0,0,0,199.6,972a5.28,5.28,0,0,0-2.51-.57,5.14,5.14,0,0,0-2.57.6,5.26,5.26,0,0,0-1.72,1.56,6.72,6.72,0,0,0-1,2.2,10.47,10.47,0,0,0-.3,2.49,10,10,0,0,0,.32,2.58,6.33,6.33,0,0,0,1,2.2,5.07,5.07,0,0,0,1.77,1.53,5.61,5.61,0,0,0,2.63.58,5.14,5.14,0,0,0,2.59-.6,4.84,4.84,0,0,0,1.66-1.58,6.84,6.84,0,0,0,.92-2.25,12.4,12.4,0,0,0,.28-2.6A8.93,8.93,0,0,0,202.37,975.62Z"/><path class="cls-2" d="M221.6,987.33v-2.88h-.07a6.07,6.07,0,0,1-2.42,2.47,7.24,7.24,0,0,1-3.48.8,8,8,0,0,1-3-.48,4.91,4.91,0,0,1-1.94-1.35,5.13,5.13,0,0,1-1-2.09,11.19,11.19,0,0,1-.3-2.69V969.17h3v12.29a3.58,3.58,0,0,0,1,2.67,3.63,3.63,0,0,0,2.7,1,6,6,0,0,0,2.37-.43,4.32,4.32,0,0,0,1.67-1.19,5,5,0,0,0,1-1.81,7.09,7.09,0,0,0,.34-2.26V969.17h3v18.16Z"/><path class="cls-2" d="M236.67,969.17v2.63h-3.62v11.28a3.16,3.16,0,0,0,.09.84.86.86,0,0,0,.33.49,1.4,1.4,0,0,0,.69.23,9,9,0,0,0,1.14.05h1.37v2.64h-2.28a10.33,10.33,0,0,1-2-.16,3,3,0,0,1-1.33-.58,2.53,2.53,0,0,1-.76-1.19,7.12,7.12,0,0,1-.24-2V971.8H227v-2.63h3.09v-5.44h3v5.44Z"/><path class="cls-2" d="M266.7,962.25v2.81H253.56v8h11.52v2.81H253.56v11.49h-3.34V962.25Z"/><path class="cls-2" d="M272.6,969.17V973h.07a8.09,8.09,0,0,1,2.66-3.27,6.73,6.73,0,0,1,4-1v3.16a8.43,8.43,0,0,0-3.06.49,4.82,4.82,0,0,0-2,1.44,6,6,0,0,0-1.13,2.3,12.62,12.62,0,0,0-.35,3.11v8.08h-3V969.17Z"/><path class="cls-2" d="M280.53,974.53a8.5,8.5,0,0,1,1.69-3,7.85,7.85,0,0,1,2.77-2,10.15,10.15,0,0,1,7.61,0,8,8,0,0,1,2.75,2,8.5,8.5,0,0,1,1.69,3,12.21,12.21,0,0,1,.56,3.74A12.08,12.08,0,0,1,297,982a8.5,8.5,0,0,1-1.69,3,7.78,7.78,0,0,1-2.75,2,10.28,10.28,0,0,1-7.61,0,7.68,7.68,0,0,1-2.77-2,8.5,8.5,0,0,1-1.69-3,12.08,12.08,0,0,1-.56-3.72A12.21,12.21,0,0,1,280.53,974.53Zm3,6.67a6.17,6.17,0,0,0,1.21,2.14,5.19,5.19,0,0,0,1.81,1.32,5.47,5.47,0,0,0,4.39,0,5.19,5.19,0,0,0,1.81-1.32A6.17,6.17,0,0,0,294,981.2a10,10,0,0,0,0-5.86,6.27,6.27,0,0,0-1.21-2.16,5.12,5.12,0,0,0-1.81-1.34,5.47,5.47,0,0,0-4.39,0,5.12,5.12,0,0,0-1.81,1.34,6.27,6.27,0,0,0-1.21,2.16,10,10,0,0,0,0,5.86Z"/><path class="cls-2" d="M303.92,969.17v2.67H304a7.08,7.08,0,0,1,8.92-2.39,4,4,0,0,1,1.93,2.39,6.35,6.35,0,0,1,2.41-2.28,6.76,6.76,0,0,1,3.28-.81,9.47,9.47,0,0,1,2.48.3,5.19,5.19,0,0,1,1.9.93,4.2,4.2,0,0,1,1.22,1.63,5.86,5.86,0,0,1,.44,2.41v13.31h-3V975.42a8.76,8.76,0,0,0-.14-1.58,3.27,3.27,0,0,0-.53-1.28,2.64,2.64,0,0,0-1.07-.86,4.28,4.28,0,0,0-1.77-.32,4.67,4.67,0,0,0-3.48,1.27,4.55,4.55,0,0,0-1.26,3.37v11.31h-3V975.42a7.38,7.38,0,0,0-.16-1.61,3.44,3.44,0,0,0-.54-1.28,2.56,2.56,0,0,0-1-.85,4,4,0,0,0-1.67-.3,4.49,4.49,0,0,0-2.23.53,5,5,0,0,0-1.51,1.27,5.33,5.33,0,0,0-.84,1.52,4.22,4.22,0,0,0-.26,1.32v11.31h-3V969.17Z"/><path class="cls-2" d="M349.93,962.25c3.86,0,6.83,1,8.92,3s3.12,5,3.12,9a20.3,20.3,0,0,1-.7,5.61,10.41,10.41,0,0,1-2.18,4.1,9.27,9.27,0,0,1-3.75,2.55,15,15,0,0,1-5.41.88h-8.61V962.25Zm.28,22.27a13.62,13.62,0,0,0,1.4-.09,8,8,0,0,0,1.79-.42,7.65,7.65,0,0,0,1.88-1,6.24,6.24,0,0,0,1.67-1.72,9.4,9.4,0,0,0,1.21-2.72,14.13,14.13,0,0,0,.48-4,16.89,16.89,0,0,0-.44-4,7.64,7.64,0,0,0-1.44-3,6.44,6.44,0,0,0-2.58-1.9,10.39,10.39,0,0,0-3.9-.65h-5.62v19.46Z"/><path class="cls-2" d="M365.14,974.53a8.33,8.33,0,0,1,1.68-3,7.8,7.8,0,0,1,2.78-2,10.13,10.13,0,0,1,7.6,0,7.9,7.9,0,0,1,2.76,2,8.48,8.48,0,0,1,1.68,3,11.91,11.91,0,0,1,.56,3.74,11.79,11.79,0,0,1-.56,3.72,8.48,8.48,0,0,1-1.68,3,7.73,7.73,0,0,1-2.76,2,10.26,10.26,0,0,1-7.6,0,7.63,7.63,0,0,1-2.78-2,8.33,8.33,0,0,1-1.68-3,11.79,11.79,0,0,1-.57-3.72A11.91,11.91,0,0,1,365.14,974.53Zm3,6.67a6.18,6.18,0,0,0,1.22,2.14,5.06,5.06,0,0,0,1.8,1.32,5.47,5.47,0,0,0,4.39,0,5.1,5.1,0,0,0,1.81-1.32,6,6,0,0,0,1.21-2.14,10,10,0,0,0,0-5.86,6.11,6.11,0,0,0-1.21-2.16,5,5,0,0,0-1.81-1.34,5.47,5.47,0,0,0-4.39,0,5,5,0,0,0-1.8,1.34,6.28,6.28,0,0,0-1.22,2.16,10,10,0,0,0,0,5.86Z"/><path class="cls-2" d="M396.57,972.33a4.55,4.55,0,0,0-3-1,5.57,5.57,0,0,0-2.71.6,5,5,0,0,0-1.74,1.58,6.78,6.78,0,0,0-.93,2.27,12.73,12.73,0,0,0-.28,2.65,10.1,10.1,0,0,0,.3,2.46,6.67,6.67,0,0,0,.93,2.12,4.65,4.65,0,0,0,1.65,1.49,5.61,5.61,0,0,0,5.88-.59,5.22,5.22,0,0,0,1.53-3.27h3.06a8.41,8.41,0,0,1-2.51,5.2,7.89,7.89,0,0,1-5.5,1.83,9.57,9.57,0,0,1-3.67-.67,7.19,7.19,0,0,1-2.67-1.9,8.25,8.25,0,0,1-1.61-2.93,12,12,0,0,1-.55-3.74,13.34,13.34,0,0,1,.53-3.81,8.74,8.74,0,0,1,1.6-3.09,7.44,7.44,0,0,1,2.68-2.07,8.7,8.7,0,0,1,3.76-.76,10.82,10.82,0,0,1,2.9.37,7.06,7.06,0,0,1,2.39,1.14,6.28,6.28,0,0,1,1.7,2,7.09,7.09,0,0,1,.84,2.79H398A4.51,4.51,0,0,0,396.57,972.33Z"/><path class="cls-2" d="M407.73,962.25v14.86l8.29-7.94h4l-7.2,6.6,7.72,11.56h-3.79l-6.22-9.48-2.81,2.59v6.89h-3V962.25Z"/><path class="cls-2" d="M556.48,966.06a6,6,0,0,1,1.62-2,7.27,7.27,0,0,1,2.34-1.23,8.94,8.94,0,0,1,2.75-.42,9.94,9.94,0,0,1,3.48.54,6.74,6.74,0,0,1,2.34,1.44,5.71,5.71,0,0,1,1.31,2,6.72,6.72,0,0,1,.42,2.34,5.41,5.41,0,0,1-.93,3.07A5.79,5.79,0,0,1,567.3,974a6,6,0,0,1,3.34,2.3,6.82,6.82,0,0,1,1.09,3.91,7.63,7.63,0,0,1-.65,3.23,7.14,7.14,0,0,1-1.76,2.38,7.35,7.35,0,0,1-2.62,1.45,10.26,10.26,0,0,1-3.23.5,11.86,11.86,0,0,1-3.33-.46,7.44,7.44,0,0,1-2.69-1.41,6.53,6.53,0,0,1-1.79-2.37,8,8,0,0,1-.65-3.32,6.6,6.6,0,0,1,1.12-3.84,6.32,6.32,0,0,1,3.23-2.37,5.35,5.35,0,0,1-2.52-2.06,5.42,5.42,0,0,1-1-3.1A6.09,6.09,0,0,1,556.48,966.06Zm3.18,17.77a6.15,6.15,0,0,0,5.87.92,5,5,0,0,0,1.61-1,4.43,4.43,0,0,0,1.06-1.53,5,5,0,0,0,.37-1.93,4.35,4.35,0,0,0-.41-1.88,4.77,4.77,0,0,0-1.1-1.49,5.35,5.35,0,0,0-1.64-1,5.24,5.24,0,0,0-2-.37,6.35,6.35,0,0,0-2.06.33,5,5,0,0,0-1.68,1,4.44,4.44,0,0,0-1.13,1.51,4.77,4.77,0,0,0-.4,2A4.41,4.41,0,0,0,559.66,983.83Zm-.26-13.17a3.41,3.41,0,0,0,1,1.25,4.08,4.08,0,0,0,1.4.74,6,6,0,0,0,1.72.24,4.21,4.21,0,0,0,2.95-1,3.76,3.76,0,0,0,1.16-3,3.49,3.49,0,0,0-1.17-2.86,4.57,4.57,0,0,0-3-1,5.56,5.56,0,0,0-1.68.25,3.79,3.79,0,0,0-1.39.74,3.52,3.52,0,0,0-.93,1.19,3.71,3.71,0,0,0-.35,1.65A4.2,4.2,0,0,0,559.4,970.66Z"/><path class="cls-2" d="M579.94,983.43v3.9h-3.89v-3.9Z"/><path class="cls-2" d="M592.41,987.33V969.49H586V967.1a15.32,15.32,0,0,0,2.46-.19,6.88,6.88,0,0,0,2.16-.72,4.88,4.88,0,0,0,1.63-1.44,5.41,5.41,0,0,0,.91-2.32h2.29v24.9Z"/><path class="cls-2" d="M625.92,962.25a7.78,7.78,0,0,1,5.74,2,8.65,8.65,0,0,1,0,10.94,7.61,7.61,0,0,1-5.74,1.93h-7.66v10.26h-3.34V962.25Zm-1.13,12A5.88,5.88,0,0,0,629,973.1a4.39,4.39,0,0,0,1.32-3.44,4.34,4.34,0,0,0-1.32-3.42,6.08,6.08,0,0,0-4.16-1.18h-6.53v9.2Z"/><path class="cls-2" d="M640,969.17v2.67h.07a7.08,7.08,0,0,1,8.92-2.39,4,4,0,0,1,1.93,2.39,6.35,6.35,0,0,1,2.41-2.28,6.76,6.76,0,0,1,3.28-.81,9.52,9.52,0,0,1,2.48.3A5.07,5.07,0,0,1,661,970a4.12,4.12,0,0,1,1.23,1.63,5.86,5.86,0,0,1,.44,2.41v13.31h-3V975.42a8.76,8.76,0,0,0-.14-1.58,3.27,3.27,0,0,0-.53-1.28,2.64,2.64,0,0,0-1.07-.86,4.28,4.28,0,0,0-1.77-.32,4.67,4.67,0,0,0-3.48,1.27,4.56,4.56,0,0,0-1.27,3.37v11.31h-3V975.42a7.38,7.38,0,0,0-.16-1.61,3.44,3.44,0,0,0-.54-1.28,2.56,2.56,0,0,0-1-.85,4,4,0,0,0-1.67-.3,4.49,4.49,0,0,0-2.23.53,5,5,0,0,0-1.51,1.27,5.1,5.1,0,0,0-.84,1.52,4.22,4.22,0,0,0-.26,1.32v11.31h-3V969.17Z"/><path class="cls-2" d="M666.73,974.53a8.33,8.33,0,0,1,1.68-3,7.89,7.89,0,0,1,2.78-2,10.13,10.13,0,0,1,7.6,0,7.9,7.9,0,0,1,2.76,2,8.33,8.33,0,0,1,1.68,3,11.91,11.91,0,0,1,.56,3.74,11.79,11.79,0,0,1-.56,3.72,8.33,8.33,0,0,1-1.68,3,7.73,7.73,0,0,1-2.76,2,10.26,10.26,0,0,1-7.6,0,7.72,7.72,0,0,1-2.78-2,8.33,8.33,0,0,1-1.68-3,11.79,11.79,0,0,1-.57-3.72A11.91,11.91,0,0,1,666.73,974.53Zm3,6.67a6.18,6.18,0,0,0,1.22,2.14,5.06,5.06,0,0,0,1.8,1.32,5.53,5.53,0,0,0,2.2.46,5.44,5.44,0,0,0,2.19-.46,5.1,5.1,0,0,0,1.81-1.32,6,6,0,0,0,1.21-2.14,10,10,0,0,0,0-5.86,6.11,6.11,0,0,0-1.21-2.16,5,5,0,0,0-1.81-1.34,5.44,5.44,0,0,0-2.19-.46,5.53,5.53,0,0,0-2.2.46,5,5,0,0,0-1.8,1.34,6.28,6.28,0,0,0-1.22,2.16,10,10,0,0,0,0,5.86Z"/><path class="cls-2" d="M700.55,987.33v-2.46h-.07a4.45,4.45,0,0,1-2.32,2.18,9,9,0,0,1-3.48.67,8.13,8.13,0,0,1-3.67-.78,7.46,7.46,0,0,1-2.6-2.07,9,9,0,0,1-1.56-3,12.49,12.49,0,0,1-.53-3.65,12.85,12.85,0,0,1,.51-3.66,8.73,8.73,0,0,1,1.55-3,7.38,7.38,0,0,1,2.6-2,8.15,8.15,0,0,1,3.63-.76,9.22,9.22,0,0,1,1.51.14,7.62,7.62,0,0,1,1.62.47,7.5,7.5,0,0,1,1.52.88,5,5,0,0,1,1.22,1.36h.07v-9.35h3v25.08Zm-10.73-6.45a6.52,6.52,0,0,0,1,2.16,4.83,4.83,0,0,0,1.75,1.51,5.28,5.28,0,0,0,2.51.57,5.14,5.14,0,0,0,2.57-.6,5.26,5.26,0,0,0,1.72-1.56,6.72,6.72,0,0,0,1-2.2,10.69,10.69,0,0,0,0-5.07,6.53,6.53,0,0,0-1-2.2,5.07,5.07,0,0,0-1.77-1.53,5.61,5.61,0,0,0-2.63-.58,5.14,5.14,0,0,0-2.57.6,4.81,4.81,0,0,0-1.68,1.58,7.06,7.06,0,0,0-.92,2.25,12.4,12.4,0,0,0-.28,2.6A8.93,8.93,0,0,0,689.82,980.88Z"/><path class="cls-2" d="M721.72,962.25V973h13.21V962.25h3.34v25.08h-3.34V975.84H721.72v11.49h-3.33V962.25Z"/><path class="cls-2" d="M756.11,986.17a8.26,8.26,0,0,1-5.13,1.55,9.34,9.34,0,0,1-3.78-.71,7.45,7.45,0,0,1-2.68-2,8.48,8.48,0,0,1-1.64-3,14.9,14.9,0,0,1-.61-3.83,11,11,0,0,1,.63-3.8,9.07,9.07,0,0,1,1.77-3,8.08,8.08,0,0,1,6.13-2.67,7.4,7.4,0,0,1,4,1,8,8,0,0,1,2.57,2.55,10,10,0,0,1,1.33,3.37,14.13,14.13,0,0,1,.3,3.48H745.43a7.3,7.3,0,0,0,.28,2.26,5.07,5.07,0,0,0,1,1.9,4.9,4.9,0,0,0,1.79,1.31,6.15,6.15,0,0,0,2.56.5,5.2,5.2,0,0,0,3.11-.88,4.27,4.27,0,0,0,1.6-2.67h3A7.28,7.28,0,0,1,756.11,986.17Zm-.72-11.66a5.06,5.06,0,0,0-2.71-2.72,5.07,5.07,0,0,0-2-.41,5.2,5.2,0,0,0-2.09.41,4.91,4.91,0,0,0-1.6,1.1,5.12,5.12,0,0,0-1.05,1.64,6.23,6.23,0,0,0-.46,2h10.43A6.42,6.42,0,0,0,755.39,974.51Z"/><path class="cls-2" d="M778.2,987.26a4.29,4.29,0,0,1-2.15.46,2.55,2.55,0,0,1-1.84-.66,2.8,2.8,0,0,1-.68-2.12,7.15,7.15,0,0,1-2.87,2.12,9.66,9.66,0,0,1-5.86.37,5.45,5.45,0,0,1-1.92-.87A4.32,4.32,0,0,1,761.6,985a6.21,6.21,0,0,1,0-4.86,4.7,4.7,0,0,1,1.39-1.6,6.39,6.39,0,0,1,2-.93c.74-.21,1.49-.39,2.26-.53s1.6-.28,2.34-.37a11.81,11.81,0,0,0,1.95-.35,3.19,3.19,0,0,0,1.33-.66,1.64,1.64,0,0,0,.5-1.29,3.05,3.05,0,0,0-.37-1.58,2.66,2.66,0,0,0-.95-.91,3.89,3.89,0,0,0-1.3-.42,9.92,9.92,0,0,0-1.42-.11,6.29,6.29,0,0,0-3.16.72,3,3,0,0,0-1.37,2.73h-3a6.5,6.5,0,0,1,.7-2.85,5.37,5.37,0,0,1,1.69-1.88,7,7,0,0,1,2.4-1,12.28,12.28,0,0,1,2.9-.32,16.59,16.59,0,0,1,2.44.18,6.32,6.32,0,0,1,2.2.71,4.29,4.29,0,0,1,1.58,1.53,4.85,4.85,0,0,1,.6,2.56v9.32a7.12,7.12,0,0,0,.12,1.54c.08.33.36.49.82.49a3.81,3.81,0,0,0,.92-.14ZM773.35,978a3.73,3.73,0,0,1-1.48.61c-.6.13-1.24.24-1.91.32s-1.34.17-2,.28a7.41,7.41,0,0,0-1.83.5,3.45,3.45,0,0,0-1.31,1,2.78,2.78,0,0,0-.51,1.77,2.42,2.42,0,0,0,.3,1.24,2.52,2.52,0,0,0,.77.82,3.16,3.16,0,0,0,1.11.45,6.31,6.31,0,0,0,1.33.14,7.07,7.07,0,0,0,2.53-.4,5.47,5.47,0,0,0,1.72-1,4.16,4.16,0,0,0,1-1.33,3.39,3.39,0,0,0,.32-1.35Z"/><path class="cls-2" d="M794.21,987.33v-2.46h-.07a4.38,4.38,0,0,1-2.32,2.18,8.91,8.91,0,0,1-3.47.67,8.1,8.1,0,0,1-3.67-.78,7.37,7.37,0,0,1-2.6-2.07,9.23,9.23,0,0,1-1.57-3,12.48,12.48,0,0,1-.52-3.65,12.85,12.85,0,0,1,.51-3.66,8.71,8.71,0,0,1,1.54-3,7.47,7.47,0,0,1,2.6-2,8.16,8.16,0,0,1,3.64-.76,9.32,9.32,0,0,1,1.51.14,7.71,7.71,0,0,1,1.61.47,7.31,7.31,0,0,1,1.53.88,5,5,0,0,1,1.21,1.36h.07v-9.35h3v25.08Zm-10.73-6.45a6.52,6.52,0,0,0,1,2.16,4.86,4.86,0,0,0,1.76,1.51,5.25,5.25,0,0,0,2.51.57,5.1,5.1,0,0,0,2.56-.6,5.17,5.17,0,0,0,1.72-1.56,6.53,6.53,0,0,0,1-2.2,10.52,10.52,0,0,0,0-5.07,6.33,6.33,0,0,0-1-2.2,5.25,5.25,0,0,0-1.77-1.53,5.65,5.65,0,0,0-2.64-.58,5.08,5.08,0,0,0-2.56.6,4.84,4.84,0,0,0-1.69,1.58,7,7,0,0,0-.91,2.25,11.77,11.77,0,0,0-.28,2.6A9.31,9.31,0,0,0,783.48,980.88Z"/><path class="cls-2" d="M814.65,986.17a8.26,8.26,0,0,1-5.13,1.55,9.26,9.26,0,0,1-3.77-.71,7.49,7.49,0,0,1-2.69-2,8.46,8.46,0,0,1-1.63-3,14.9,14.9,0,0,1-.62-3.83,10.79,10.79,0,0,1,.64-3.8,9.07,9.07,0,0,1,1.77-3,8.11,8.11,0,0,1,2.7-2,8.28,8.28,0,0,1,3.43-.7,7.44,7.44,0,0,1,4,1,8,8,0,0,1,2.56,2.55,10,10,0,0,1,1.34,3.37,15.17,15.17,0,0,1,.3,3.48H804a7,7,0,0,0,.29,2.26,5.19,5.19,0,0,0,1,1.9,4.93,4.93,0,0,0,1.8,1.31,6.12,6.12,0,0,0,2.56.5,5.22,5.22,0,0,0,3.11-.88,4.26,4.26,0,0,0,1.59-2.67h2.95A7.2,7.2,0,0,1,814.65,986.17Zm-.72-11.66a5.09,5.09,0,0,0-2.7-2.72,5.12,5.12,0,0,0-2.06-.41,5.2,5.2,0,0,0-2.09.41,5,5,0,0,0-1.6,1.1,5.48,5.48,0,0,0-1.05,1.64,6.23,6.23,0,0,0-.46,2H814.4A5.91,5.91,0,0,0,813.93,974.51Z"/><path class="cls-2" d="M823.36,969.17V973h.07a8.18,8.18,0,0,1,2.67-3.27,6.69,6.69,0,0,1,4-1v3.16a8.37,8.37,0,0,0-3.05.49,4.91,4.91,0,0,0-2,1.44,6,6,0,0,0-1.12,2.3,12.16,12.16,0,0,0-.35,3.11v8.08h-3V969.17Z"/><path class="cls-2" d="M849.38,987.33V969.49h-6.46V967.1a15.23,15.23,0,0,0,2.46-.19,6.71,6.71,0,0,0,2.16-.72,4.88,4.88,0,0,0,1.63-1.44,5.54,5.54,0,0,0,.92-2.32h2.28v24.9Z"/><path class="cls-2" d="M1029,966.06a6,6,0,0,1,1.62-2,7.32,7.32,0,0,1,2.33-1.23,9,9,0,0,1,2.76-.42,9.94,9.94,0,0,1,3.48.54,6.6,6.6,0,0,1,2.33,1.44,5.6,5.6,0,0,1,1.32,2,6.72,6.72,0,0,1,.42,2.34,5.41,5.41,0,0,1-.93,3.07,5.84,5.84,0,0,1-2.51,2.09,6,6,0,0,1,3.34,2.3,6.82,6.82,0,0,1,1.09,3.91,7.63,7.63,0,0,1-.65,3.23,7.14,7.14,0,0,1-1.76,2.38,7.35,7.35,0,0,1-2.62,1.45,10.26,10.26,0,0,1-3.23.5,11.86,11.86,0,0,1-3.33-.46,7.44,7.44,0,0,1-2.69-1.41,6.53,6.53,0,0,1-1.79-2.37,7.81,7.81,0,0,1-.65-3.32,6.6,6.6,0,0,1,1.12-3.84,6.32,6.32,0,0,1,3.23-2.37,5.42,5.42,0,0,1-2.53-2.06,5.49,5.49,0,0,1-.94-3.1A6,6,0,0,1,1029,966.06Zm3.18,17.77a6.15,6.15,0,0,0,5.87.92,5,5,0,0,0,1.61-1,4.43,4.43,0,0,0,1.06-1.53,5,5,0,0,0,.36-1.93,4.34,4.34,0,0,0-.4-1.88,4.65,4.65,0,0,0-1.11-1.49,5.18,5.18,0,0,0-1.63-1,5.24,5.24,0,0,0-2-.37,6.35,6.35,0,0,0-2.06.33,5,5,0,0,0-1.68,1,4.44,4.44,0,0,0-1.13,1.51,4.61,4.61,0,0,0-.4,2A4.41,4.41,0,0,0,1032.22,983.83Zm-.26-13.17a3.41,3.41,0,0,0,1,1.25,4,4,0,0,0,1.4.74,6,6,0,0,0,1.72.24,4.21,4.21,0,0,0,3-1,3.8,3.8,0,0,0,1.16-3A3.47,3.47,0,0,0,1039,966a4.53,4.53,0,0,0-3-1,5.51,5.51,0,0,0-1.68.25,3.79,3.79,0,0,0-1.39.74,3.52,3.52,0,0,0-.93,1.19,3.58,3.58,0,0,0-.35,1.65A4.05,4.05,0,0,0,1032,970.66Z"/><path class="cls-2" d="M1052.5,983.43v3.9h-3.9v-3.9Z"/><path class="cls-2" d="M1057.38,967.73a7.42,7.42,0,0,1,1.53-2.79,7.14,7.14,0,0,1,2.58-1.84,8.7,8.7,0,0,1,3.52-.67,9.66,9.66,0,0,1,3,.47,7.55,7.55,0,0,1,2.48,1.37,6.45,6.45,0,0,1,1.67,2.23,7.31,7.31,0,0,1,.61,3.09,7.8,7.8,0,0,1-.51,2.92,8.27,8.27,0,0,1-1.35,2.26,11.09,11.09,0,0,1-1.93,1.81c-.73.54-1.48,1.06-2.25,1.55s-1.54.93-2.32,1.38a19.23,19.23,0,0,0-2.12,1.46,9.63,9.63,0,0,0-1.65,1.67,4.69,4.69,0,0,0-.9,2.05h12.79v2.64H1056.3a13,13,0,0,1,.79-3.78,10.13,10.13,0,0,1,1.56-2.72,12.15,12.15,0,0,1,2.14-2c.8-.58,1.63-1.13,2.5-1.65,1-.65,2-1.25,2.77-1.8a11.88,11.88,0,0,0,2-1.67,5.57,5.57,0,0,0,1.6-4.11,4.29,4.29,0,0,0-.39-1.85,4.43,4.43,0,0,0-1-1.42,4.35,4.35,0,0,0-1.53-.91,5.42,5.42,0,0,0-1.86-.32,4.26,4.26,0,0,0-2.23.55,4.62,4.62,0,0,0-1.53,1.42,6,6,0,0,0-.86,2,8.85,8.85,0,0,0-.23,2.23h-3A10.27,10.27,0,0,1,1057.38,967.73Z"/><path class="cls-2" d="M1098.48,962.25a7.79,7.79,0,0,1,5.74,2,8.65,8.65,0,0,1,0,10.94,7.62,7.62,0,0,1-5.74,1.93h-7.66v10.26h-3.34V962.25Zm-1.13,12a5.9,5.9,0,0,0,4.16-1.16,4.39,4.39,0,0,0,1.32-3.44,4.34,4.34,0,0,0-1.32-3.42,6.1,6.1,0,0,0-4.16-1.18h-6.53v9.2Z"/><path class="cls-2" d="M1112.56,969.17v2.67h.07a7.08,7.08,0,0,1,8.92-2.39,4,4,0,0,1,1.93,2.39,6.35,6.35,0,0,1,2.41-2.28,6.76,6.76,0,0,1,3.28-.81,9.52,9.52,0,0,1,2.48.3,5.15,5.15,0,0,1,1.89.93,4.12,4.12,0,0,1,1.23,1.63,6,6,0,0,1,.44,2.41v13.31h-3V975.42a8.76,8.76,0,0,0-.14-1.58,3.27,3.27,0,0,0-.53-1.28,2.7,2.7,0,0,0-1.07-.86,4.29,4.29,0,0,0-1.78-.32,4.66,4.66,0,0,0-3.47,1.27A4.52,4.52,0,0,0,1124,976v11.31h-3V975.42a8.06,8.06,0,0,0-.16-1.61,3.61,3.61,0,0,0-.54-1.28,2.56,2.56,0,0,0-1-.85,4,4,0,0,0-1.67-.3,4.46,4.46,0,0,0-2.23.53,5,5,0,0,0-1.51,1.27,4.89,4.89,0,0,0-.84,1.52,4.28,4.28,0,0,0-.27,1.32v11.31h-3V969.17Z"/><path class="cls-2" d="M1139.28,974.53a8.5,8.5,0,0,1,1.69-3,7.85,7.85,0,0,1,2.77-2,10.15,10.15,0,0,1,7.61,0,7.77,7.77,0,0,1,2.75,2,8.35,8.35,0,0,1,1.69,3,11.91,11.91,0,0,1,.56,3.74,11.79,11.79,0,0,1-.56,3.72,8.35,8.35,0,0,1-1.69,3,7.61,7.61,0,0,1-2.75,2,10.28,10.28,0,0,1-7.61,0,7.68,7.68,0,0,1-2.77-2,8.5,8.5,0,0,1-1.69-3,12.08,12.08,0,0,1-.56-3.72A12.21,12.21,0,0,1,1139.28,974.53Zm3,6.67a6.17,6.17,0,0,0,1.21,2.14,5.19,5.19,0,0,0,1.81,1.32,5.47,5.47,0,0,0,4.39,0,5.1,5.1,0,0,0,1.81-1.32,6,6,0,0,0,1.21-2.14,10,10,0,0,0,0-5.86,6.11,6.11,0,0,0-1.21-2.16,5,5,0,0,0-1.81-1.34,5.47,5.47,0,0,0-4.39,0,5.12,5.12,0,0,0-1.81,1.34,6.27,6.27,0,0,0-1.21,2.16,10,10,0,0,0,0,5.86Z"/><path class="cls-2" d="M1173.1,987.33v-2.46H1173a4.4,4.4,0,0,1-2.31,2.18,9,9,0,0,1-3.48.67,8.1,8.1,0,0,1-3.67-.78,7.46,7.46,0,0,1-2.6-2.07,9,9,0,0,1-1.56-3,12.49,12.49,0,0,1-.53-3.65,12.85,12.85,0,0,1,.51-3.66,8.56,8.56,0,0,1,1.55-3,7.44,7.44,0,0,1,2.59-2,8.22,8.22,0,0,1,3.64-.76,9.22,9.22,0,0,1,1.51.14,7.25,7.25,0,0,1,3.14,1.35,4.79,4.79,0,0,1,1.21,1.36h.07v-9.35h3v25.08Zm-10.72-6.45a6.71,6.71,0,0,0,1,2.16,4.86,4.86,0,0,0,1.76,1.51,5.25,5.25,0,0,0,2.51.57,5.08,5.08,0,0,0,2.56-.6A5.2,5.2,0,0,0,1172,983a6.72,6.72,0,0,0,1-2.2,10.52,10.52,0,0,0,0-5.07,6.33,6.33,0,0,0-1-2.2,5.16,5.16,0,0,0-1.77-1.53,5.64,5.64,0,0,0-2.63-.58,5.12,5.12,0,0,0-2.57.6,4.81,4.81,0,0,0-1.68,1.58,6.84,6.84,0,0,0-.92,2.25,11.77,11.77,0,0,0-.28,2.6A8.93,8.93,0,0,0,1162.38,980.88Z"/><path class="cls-2" d="M1194.28,962.25V973h13.21V962.25h3.33v25.08h-3.33V975.84h-13.21v11.49H1191V962.25Z"/><path class="cls-2" d="M1228.66,986.17a8.21,8.21,0,0,1-5.12,1.55,9.34,9.34,0,0,1-3.78-.71,7.58,7.58,0,0,1-2.69-2,8.46,8.46,0,0,1-1.63-3,14.48,14.48,0,0,1-.61-3.83,11,11,0,0,1,.63-3.8,9.07,9.07,0,0,1,1.77-3,8.05,8.05,0,0,1,2.71-2,8.21,8.21,0,0,1,3.42-.7,7.4,7.4,0,0,1,4,1,8,8,0,0,1,2.57,2.55,10,10,0,0,1,1.33,3.37,14.13,14.13,0,0,1,.3,3.48H1218a7,7,0,0,0,.28,2.26,5.07,5.07,0,0,0,1,1.9,4.81,4.81,0,0,0,1.79,1.31,6.12,6.12,0,0,0,2.56.5,5.2,5.2,0,0,0,3.11-.88,4.27,4.27,0,0,0,1.6-2.67h3A7.25,7.25,0,0,1,1228.66,986.17Zm-.72-11.66a5.25,5.25,0,0,0-6.84-2.72,4.91,4.91,0,0,0-1.6,1.1,5.32,5.32,0,0,0-1.06,1.64,6.22,6.22,0,0,0-.45,2h10.43A6.17,6.17,0,0,0,1227.94,974.51Z"/><path class="cls-2" d="M1250.75,987.26a4.23,4.23,0,0,1-2.14.46,2.53,2.53,0,0,1-1.84-.66,2.8,2.8,0,0,1-.69-2.12,7.12,7.12,0,0,1-2.86,2.12,9.66,9.66,0,0,1-5.86.37,5.45,5.45,0,0,1-1.92-.87,4.22,4.22,0,0,1-1.28-1.57,5.18,5.18,0,0,1-.47-2.33,5.34,5.34,0,0,1,.52-2.53,4.6,4.6,0,0,1,1.39-1.6,6.29,6.29,0,0,1,2-.93c.73-.21,1.49-.39,2.26-.53s1.6-.28,2.34-.37a12,12,0,0,0,1.95-.35,3.25,3.25,0,0,0,1.33-.66,1.64,1.64,0,0,0,.49-1.29,3,3,0,0,0-.37-1.58,2.56,2.56,0,0,0-.94-.91,3.89,3.89,0,0,0-1.3-.42,10,10,0,0,0-1.43-.11,6.34,6.34,0,0,0-3.16.72,3.07,3.07,0,0,0-1.37,2.73h-3a6.5,6.5,0,0,1,.7-2.85,5.28,5.28,0,0,1,1.69-1.88,7,7,0,0,1,2.4-1,12.22,12.22,0,0,1,2.9-.32,16.59,16.59,0,0,1,2.44.18,6.32,6.32,0,0,1,2.2.71,4.29,4.29,0,0,1,1.58,1.53,5,5,0,0,1,.59,2.56v9.32a6.41,6.41,0,0,0,.13,1.54c.08.33.35.49.82.49a3.74,3.74,0,0,0,.91-.14Zm-4.84-9.31a3.8,3.8,0,0,1-1.48.61c-.61.13-1.24.24-1.91.32s-1.34.17-2,.28a7.41,7.41,0,0,0-1.83.5,3.37,3.37,0,0,0-1.31,1,2.78,2.78,0,0,0-.51,1.77,2.35,2.35,0,0,0,1.07,2.06,3.11,3.11,0,0,0,1.1.45,6.48,6.48,0,0,0,1.34.14,7.07,7.07,0,0,0,2.53-.4,5.58,5.58,0,0,0,1.72-1,4.16,4.16,0,0,0,1-1.33,3.39,3.39,0,0,0,.32-1.35Z"/><path class="cls-2" d="M1266.77,987.33v-2.46h-.07a4.42,4.42,0,0,1-2.32,2.18,8.92,8.92,0,0,1-3.48.67,8.16,8.16,0,0,1-3.67-.78,7.55,7.55,0,0,1-2.6-2.07,9,9,0,0,1-1.56-3,12.48,12.48,0,0,1-.52-3.65,12.85,12.85,0,0,1,.5-3.66,8.73,8.73,0,0,1,1.55-3,7.47,7.47,0,0,1,2.6-2,8.15,8.15,0,0,1,3.63-.76,9.12,9.12,0,0,1,1.51.14,7.62,7.62,0,0,1,1.62.47,7.31,7.31,0,0,1,1.53.88,5,5,0,0,1,1.21,1.36h.07v-9.35h3v25.08ZM1256,980.88a6.52,6.52,0,0,0,1,2.16,4.83,4.83,0,0,0,1.75,1.51,5.32,5.32,0,0,0,2.52.57,5.1,5.1,0,0,0,2.56-.6,5.17,5.17,0,0,0,1.72-1.56,6.74,6.74,0,0,0,1-2.2,11,11,0,0,0,.3-2.49,10.48,10.48,0,0,0-.32-2.58,6.51,6.51,0,0,0-1-2.2,5.2,5.2,0,0,0-1.78-1.53,5.58,5.58,0,0,0-2.63-.58,5.08,5.08,0,0,0-2.56.6,4.76,4.76,0,0,0-1.69,1.58,6.82,6.82,0,0,0-.91,2.25,11.77,11.77,0,0,0-.28,2.6A9.31,9.31,0,0,0,1256,980.88Z"/><path class="cls-2" d="M1287.21,986.17a8.26,8.26,0,0,1-5.13,1.55,9.26,9.26,0,0,1-3.77-.71,7.4,7.4,0,0,1-2.69-2,8.31,8.31,0,0,1-1.63-3,14.48,14.48,0,0,1-.62-3.83,11,11,0,0,1,.63-3.8,9.27,9.27,0,0,1,1.78-3,8.11,8.11,0,0,1,2.7-2,8.25,8.25,0,0,1,3.43-.7,7.44,7.44,0,0,1,4,1,8,8,0,0,1,2.56,2.55,10.22,10.22,0,0,1,1.34,3.37,14.61,14.61,0,0,1,.29,3.48h-13.59a7.3,7.3,0,0,0,.28,2.26,5.07,5.07,0,0,0,1,1.9,5,5,0,0,0,1.79,1.31,6.17,6.17,0,0,0,2.57.5,5.17,5.17,0,0,0,3.1-.88,4.27,4.27,0,0,0,1.6-2.67h2.95A7.24,7.24,0,0,1,1287.21,986.17Zm-.72-11.66a5,5,0,0,0-1.09-1.63,5.33,5.33,0,0,0-5.76-1.09,5,5,0,0,0-1.6,1.1,5.48,5.48,0,0,0-1,1.64,6.23,6.23,0,0,0-.46,2H1287A5.91,5.91,0,0,0,1286.49,974.51Z"/><path class="cls-2" d="M1295.92,969.17V973h.07a8,8,0,0,1,2.67-3.27,6.69,6.69,0,0,1,4-1v3.16a8.37,8.37,0,0,0-3.05.49,4.79,4.79,0,0,0-2,1.44,5.82,5.82,0,0,0-1.12,2.3,12.14,12.14,0,0,0-.36,3.11v8.08h-3V969.17Z"/><path class="cls-2" d="M1314.36,967.73a7.27,7.27,0,0,1,1.52-2.79,7.1,7.1,0,0,1,2.59-1.84,8.69,8.69,0,0,1,3.51-.67,9.77,9.77,0,0,1,3,.47,7.61,7.61,0,0,1,2.47,1.37,6.45,6.45,0,0,1,1.67,2.23,7.31,7.31,0,0,1,.61,3.09,7.8,7.8,0,0,1-.51,2.92,8.27,8.27,0,0,1-1.35,2.26,11.09,11.09,0,0,1-1.93,1.81c-.73.54-1.47,1.06-2.25,1.55l-2.31,1.38a18.47,18.47,0,0,0-2.13,1.46,10,10,0,0,0-1.65,1.67,4.69,4.69,0,0,0-.9,2.05h12.79v2.64h-16.26a13,13,0,0,1,.79-3.78,10.13,10.13,0,0,1,1.56-2.72,12.15,12.15,0,0,1,2.14-2c.8-.58,1.63-1.13,2.5-1.65,1-.65,2-1.25,2.77-1.8a12.41,12.41,0,0,0,2-1.67,6.19,6.19,0,0,0,1.19-1.83,6,6,0,0,0,.4-2.28,4.43,4.43,0,0,0-.38-1.85,4.62,4.62,0,0,0-1-1.42,4.35,4.35,0,0,0-1.53-.91,5.42,5.42,0,0,0-1.86-.32,4.29,4.29,0,0,0-2.23.55A4.62,4.62,0,0,0,1318,967a6.2,6.2,0,0,0-.86,2,8.41,8.41,0,0,0-.22,2.23h-3A10,10,0,0,1,1314.36,967.73Z"/><path class="cls-2" d="M1123.18,867.53v2.63h-3.37V876H1117v-5.83h-10.93v-2.88l11.35-16.19h2.39v16.44ZM1117,855.34h-.07l-8.29,12.19H1117Z"/><path class="cls-2" d="M1131.43,872.09V876h-3.9v-3.9Z"/><path class="cls-2" d="M1156,850.91l1.74,0c.62,0,1.23.05,1.84.11a13.52,13.52,0,0,1,1.7.26,4.29,4.29,0,0,1,1.36.53,6.62,6.62,0,0,1,2.09,2,5.72,5.72,0,0,1,.86,3.2,6.08,6.08,0,0,1-1,3.46,5.68,5.68,0,0,1-2.76,2.16v.07a5.77,5.77,0,0,1,3.55,2.11,6.27,6.27,0,0,1,1.23,3.93,7.47,7.47,0,0,1-.49,2.67,6.63,6.63,0,0,1-1.46,2.3,7.21,7.21,0,0,1-2.39,1.62,8.34,8.34,0,0,1-3.28.61h-12.12V850.91Zm.91,10.79a6.54,6.54,0,0,0,4.09-1,3.6,3.6,0,0,0,1.25-3,4.46,4.46,0,0,0-.42-2.11,3,3,0,0,0-1.16-1.19,4.53,4.53,0,0,0-1.7-.54,15,15,0,0,0-2.06-.13h-6.67v8Zm1.69,11.48A4.83,4.83,0,0,0,1162,872a4.37,4.37,0,0,0,1.24-3.31,4.15,4.15,0,0,0-.45-2,3.55,3.55,0,0,0-1.21-1.28,5.13,5.13,0,0,0-1.74-.67,10.53,10.53,0,0,0-2-.19h-7.62v8.67Z"/><path class="cls-2" d="M1182.67,876v-2.88h-.07a6.16,6.16,0,0,1-2.42,2.48,7.36,7.36,0,0,1-3.48.79,8.11,8.11,0,0,1-3-.48,4.74,4.74,0,0,1-1.93-1.35,5.07,5.07,0,0,1-1-2.09,11.19,11.19,0,0,1-.3-2.69V857.83h3v12.29a3.58,3.58,0,0,0,1,2.67,3.62,3.62,0,0,0,2.7,1,6.05,6.05,0,0,0,2.37-.42,4.45,4.45,0,0,0,1.67-1.2,5,5,0,0,0,1-1.81,7.39,7.39,0,0,0,.34-2.26V857.83h3V876Z"/><path class="cls-2" d="M1197.74,857.83v2.64h-3.62v11.27a3.16,3.16,0,0,0,.09.84.86.86,0,0,0,.33.49,1.37,1.37,0,0,0,.69.23,8.68,8.68,0,0,0,1.14.06h1.37V876h-2.29a10.29,10.29,0,0,1-2-.16,2.89,2.89,0,0,1-1.34-.58,2.52,2.52,0,0,1-.75-1.19,7.07,7.07,0,0,1-.25-2V860.47H1188v-2.64h3.09v-5.44h3v5.44Z"/><path class="cls-2" d="M1208.8,857.83v2.64h-3.62v11.27a3.16,3.16,0,0,0,.09.84.86.86,0,0,0,.33.49,1.44,1.44,0,0,0,.69.23,8.68,8.68,0,0,0,1.14.06h1.37V876h-2.28a10.33,10.33,0,0,1-2-.16,2.86,2.86,0,0,1-1.33-.58,2.53,2.53,0,0,1-.76-1.19,7.12,7.12,0,0,1-.24-2V860.47h-3.09v-2.64h3.09v-5.44h3v5.44Z"/><path class="cls-2" d="M1211.68,863.19a8.48,8.48,0,0,1,1.68-3,7.89,7.89,0,0,1,2.78-2,10.13,10.13,0,0,1,7.6,0,7.9,7.9,0,0,1,2.76,2,8.5,8.5,0,0,1,1.69,3,12.21,12.21,0,0,1,.56,3.74,12.08,12.08,0,0,1-.56,3.72,8.5,8.5,0,0,1-1.69,3,7.75,7.75,0,0,1-2.76,2,10.39,10.39,0,0,1-7.6,0,7.74,7.74,0,0,1-2.78-2,8.48,8.48,0,0,1-1.68-3,11.79,11.79,0,0,1-.56-3.72A11.91,11.91,0,0,1,1211.68,863.19Zm3,6.67a5.93,5.93,0,0,0,1.21,2.14,5.1,5.1,0,0,0,1.81,1.32,5.47,5.47,0,0,0,4.39,0,5.19,5.19,0,0,0,1.81-1.32,6.24,6.24,0,0,0,1.21-2.14,10,10,0,0,0,0-5.86,6.43,6.43,0,0,0-1.21-2.16,5.24,5.24,0,0,0-1.81-1.34,5.58,5.58,0,0,0-4.39,0,5.15,5.15,0,0,0-1.81,1.34,6.11,6.11,0,0,0-1.21,2.16,10,10,0,0,0,0,5.86Z"/><path class="cls-2" d="M1235.07,857.83v2.88h.07a6.29,6.29,0,0,1,5.9-3.3,8,8,0,0,1,3,.49,5,5,0,0,1,1.94,1.37,5.13,5.13,0,0,1,1,2.09,11.24,11.24,0,0,1,.3,2.69V876h-3V863.7a3.57,3.57,0,0,0-1-2.67,3.63,3.63,0,0,0-2.7-1,6.05,6.05,0,0,0-2.37.42,4.43,4.43,0,0,0-1.67,1.19,5.08,5.08,0,0,0-1,1.81,7.14,7.14,0,0,0-.34,2.26V876h-3V857.83Z"/><path class="cls-2" d="M178.3,869.07V851.23h-6.46v-2.39a15.32,15.32,0,0,0,2.46-.19,6.88,6.88,0,0,0,2.16-.72,5,5,0,0,0,1.63-1.44,5.48,5.48,0,0,0,.91-2.32h2.28v24.9Z"/><path class="cls-2" d="M195.12,865.17v3.9h-3.9v-3.9Z"/><path class="cls-2" d="M228,867.23c-1.71,1.6-4.14,2.4-7.31,2.4s-5.75-.76-7.56-2.3-2.73-4-2.73-7.32V844h3.34v16a6.82,6.82,0,0,0,1.79,5.11,7.13,7.13,0,0,0,5.16,1.74,6.43,6.43,0,0,0,4.87-1.74,7.11,7.11,0,0,0,1.67-5.11V844h3.33v16C230.59,863.22,229.74,865.62,228,867.23Z"/><path class="cls-2" d="M248.49,847.42a7.1,7.1,0,0,0-4.27-1.21,10.24,10.24,0,0,0-2.07.21,5.47,5.47,0,0,0-1.81.7,3.74,3.74,0,0,0-1.27,1.32,4.12,4.12,0,0,0-.47,2,2.59,2.59,0,0,0,.69,1.88,5.08,5.08,0,0,0,1.82,1.18,15.84,15.84,0,0,0,2.58.75c1,.2,1.94.42,2.94.65s2,.51,2.93.83a9.72,9.72,0,0,1,2.58,1.28,6.18,6.18,0,0,1,1.83,2,6.36,6.36,0,0,1,.68,3.09,6.27,6.27,0,0,1-.9,3.42,7.28,7.28,0,0,1-2.3,2.32,9.87,9.87,0,0,1-3.14,1.3,15.19,15.19,0,0,1-3.46.4,14.72,14.72,0,0,1-4-.52,9.89,9.89,0,0,1-3.31-1.6,7.62,7.62,0,0,1-2.24-2.74,8.82,8.82,0,0,1-.83-3.95h3.16a5.49,5.49,0,0,0,2.23,4.6,7,7,0,0,0,2.34,1.09,10.89,10.89,0,0,0,2.74.35,12.43,12.43,0,0,0,2.26-.21,6.7,6.7,0,0,0,2.06-.72,3.87,3.87,0,0,0,2-3.64,3.1,3.1,0,0,0-.68-2.1,5.08,5.08,0,0,0-1.83-1.32,13.25,13.25,0,0,0-2.58-.83c-1-.21-1.94-.42-2.93-.65s-2-.48-2.93-.77a10.73,10.73,0,0,1-2.59-1.16A5.58,5.58,0,0,1,236,853.6a5.43,5.43,0,0,1-.69-2.86,6.55,6.55,0,0,1,.78-3.28,6.74,6.74,0,0,1,2.05-2.29,9.38,9.38,0,0,1,2.92-1.33,12.94,12.94,0,0,1,3.35-.44,13.14,13.14,0,0,1,3.58.46,8,8,0,0,1,2.9,1.44,6.94,6.94,0,0,1,2,2.47,8.9,8.9,0,0,1,.79,3.57h-3.16A5.24,5.24,0,0,0,248.49,847.42Z"/><path class="cls-2" d="M267.79,844h1.73c.62,0,1.24,0,1.85.11a13.81,13.81,0,0,1,1.7.26,4.38,4.38,0,0,1,1.35.53,6.45,6.45,0,0,1,2.09,2,5.59,5.59,0,0,1,.86,3.19,6.13,6.13,0,0,1-1,3.46,5.77,5.77,0,0,1-2.76,2.16v.07a5.77,5.77,0,0,1,3.55,2.11,6.31,6.31,0,0,1,1.23,3.93,7.61,7.61,0,0,1-.49,2.67,6.78,6.78,0,0,1-1.46,2.3,7.31,7.31,0,0,1-2.39,1.62,8.2,8.2,0,0,1-3.28.61H258.69V844Zm.91,10.78a6.61,6.61,0,0,0,4.09-1,3.64,3.64,0,0,0,1.25-3,4.27,4.27,0,0,0-.43-2.1,3,3,0,0,0-1.15-1.2,4.58,4.58,0,0,0-1.71-.54,16.57,16.57,0,0,0-2.05-.13H262v8Zm1.68,11.48a4.81,4.81,0,0,0,3.46-1.19,4.37,4.37,0,0,0,1.25-3.3,4.05,4.05,0,0,0-.46-2,3.39,3.39,0,0,0-1.21-1.28,5,5,0,0,0-1.74-.67,10.36,10.36,0,0,0-2-.19H262v8.67Z"/><path class="cls-2" d="M296.23,847.23l-1.33,7.16.07.07a4.74,4.74,0,0,1,2.09-1.35,7.86,7.86,0,0,1,2.55-.44,9.25,9.25,0,0,1,3.12.53,6.81,6.81,0,0,1,2.56,1.6,7.66,7.66,0,0,1,1.73,2.66,10.21,10.21,0,0,1,.63,3.74,8.78,8.78,0,0,1-.55,3.08,7.59,7.59,0,0,1-4.35,4.49,9.74,9.74,0,0,1-3.81.69,9.45,9.45,0,0,1-3-.48,7.54,7.54,0,0,1-2.51-1.37,6.25,6.25,0,0,1-1.72-2.23,7.28,7.28,0,0,1-.67-3h3a4.71,4.71,0,0,0,1.56,3.22,4.87,4.87,0,0,0,1.61.95,6.14,6.14,0,0,0,2.06.33,5.56,5.56,0,0,0,2-.37,4.61,4.61,0,0,0,1.68-1.11,5.39,5.39,0,0,0,1.15-1.84,7.27,7.27,0,0,0,.42-2.58,6.19,6.19,0,0,0-.41-2.27,5.37,5.37,0,0,0-1.14-1.79,5.16,5.16,0,0,0-1.77-1.17,5.89,5.89,0,0,0-2.3-.43,5.22,5.22,0,0,0-2.62.65,7.63,7.63,0,0,0-2,1.71l-2.56-.14L294,844.59h12.29v2.64Z"/><path class="cls-2" d="M318.11,869.07,309.3,844h3.58L320,865.74h.07L327.35,844h3.48l-8.92,25.07Z"/><path class="cls-2" d="M346.73,844v25.07H343.4V844Z"/><path class="cls-2" d="M354.67,850.91v2.88h.07a6.29,6.29,0,0,1,5.9-3.3,8.06,8.06,0,0,1,3,.49,5,5,0,0,1,1.93,1.37,5.21,5.21,0,0,1,1,2.09,11.8,11.8,0,0,1,.29,2.69v11.94h-3V856.78a3.64,3.64,0,0,0-1-2.67,3.69,3.69,0,0,0-2.71-1,6.12,6.12,0,0,0-2.37.42,4.51,4.51,0,0,0-1.67,1.19,5.24,5.24,0,0,0-1,1.81,7.46,7.46,0,0,0-.33,2.27v10.25h-3V850.91Z"/><path class="cls-2" d="M374.48,850.91v2.46h.07a4.44,4.44,0,0,1,2.32-2.19,8.57,8.57,0,0,1,3.47-.69,8.1,8.1,0,0,1,3.67.78,7.31,7.31,0,0,1,2.6,2.09,9.38,9.38,0,0,1,1.57,3,12.5,12.5,0,0,1,.52,3.66,12.83,12.83,0,0,1-.51,3.65,8.53,8.53,0,0,1-1.54,3,7.22,7.22,0,0,1-2.6,2,8.45,8.45,0,0,1-3.64.74,9.39,9.39,0,0,1-1.49-.14,8.83,8.83,0,0,1-1.63-.46,6.44,6.44,0,0,1-1.53-.86,4.77,4.77,0,0,1-1.21-1.35h-.07V876h-3V850.91Zm10.73,6.45a6.52,6.52,0,0,0-1-2.16,5,5,0,0,0-1.76-1.51,5.88,5.88,0,0,0-5.07,0,5.09,5.09,0,0,0-1.72,1.57,6.4,6.4,0,0,0-1,2.19,10.56,10.56,0,0,0,0,5.08,6.28,6.28,0,0,0,1,2.19,5.25,5.25,0,0,0,1.77,1.53,5.53,5.53,0,0,0,2.64.58,5.08,5.08,0,0,0,2.58-.6,4.78,4.78,0,0,0,1.67-1.58,6.86,6.86,0,0,0,.91-2.25,11.74,11.74,0,0,0,.28-2.59A9.38,9.38,0,0,0,385.21,857.36Z"/><path class="cls-2" d="M404.44,869.07v-2.88h-.07a6.11,6.11,0,0,1-2.43,2.48,7.31,7.31,0,0,1-3.47.79,8.07,8.07,0,0,1-3-.48,4.68,4.68,0,0,1-1.93-1.35,5.08,5.08,0,0,1-1-2.09,11.18,11.18,0,0,1-.29-2.68v-12h3v12.3a3.64,3.64,0,0,0,1,2.67,3.69,3.69,0,0,0,2.71,1,6.12,6.12,0,0,0,2.37-.42,4.42,4.42,0,0,0,1.67-1.2,5.22,5.22,0,0,0,1-1.81,7.39,7.39,0,0,0,.33-2.26V850.91h3v18.16Z"/><path class="cls-2" d="M419.5,850.91v2.64h-3.61v11.27a3.35,3.35,0,0,0,.08.85.86.86,0,0,0,.34.49,1.59,1.59,0,0,0,.68.23,11.31,11.31,0,0,0,1.14.05h1.37v2.63h-2.28a10.29,10.29,0,0,1-2-.16,2.89,2.89,0,0,1-1.34-.58,2.4,2.4,0,0,1-.75-1.19,6.65,6.65,0,0,1-.25-2V853.55h-3.09v-2.64h3.09v-5.44h3v5.44Z"/><path class="cls-2" d="M251.82,888.74a7,7,0,0,0-4.26-1.21,10.26,10.26,0,0,0-2.08.21,5.41,5.41,0,0,0-1.8.7,3.74,3.74,0,0,0-1.27,1.32,4.12,4.12,0,0,0-.47,2,2.65,2.65,0,0,0,.68,1.88,5.22,5.22,0,0,0,1.83,1.18,15.84,15.84,0,0,0,2.58.75c1,.2,1.94.42,2.93.65s2,.51,2.94.83a9.43,9.43,0,0,1,2.58,1.28,6,6,0,0,1,1.82,2,6.2,6.2,0,0,1,.69,3.09,6.27,6.27,0,0,1-.9,3.42,7.38,7.38,0,0,1-2.3,2.32,9.87,9.87,0,0,1-3.14,1.3,15.19,15.19,0,0,1-3.46.4,14.35,14.35,0,0,1-4-.53,9.92,9.92,0,0,1-3.3-1.59,7.63,7.63,0,0,1-2.25-2.74,8.85,8.85,0,0,1-.82-4H241a5.42,5.42,0,0,0,2.23,4.6,7,7,0,0,0,2.33,1.09,11,11,0,0,0,2.74.35,12.53,12.53,0,0,0,2.27-.21,6.64,6.64,0,0,0,2.05-.72,3.85,3.85,0,0,0,2-3.64,3.18,3.18,0,0,0-.68-2.11,5.18,5.18,0,0,0-1.83-1.31,13.25,13.25,0,0,0-2.58-.83l-2.93-.65c-1-.22-2-.48-2.94-.77a10.49,10.49,0,0,1-2.58-1.16,5.22,5.22,0,0,1-2.51-4.72,6.72,6.72,0,0,1,.77-3.29,6.83,6.83,0,0,1,2.06-2.28,9,9,0,0,1,2.91-1.33,12.6,12.6,0,0,1,3.36-.44,13.61,13.61,0,0,1,3.58.45,8.31,8.31,0,0,1,2.9,1.44,7,7,0,0,1,2,2.48,8.69,8.69,0,0,1,.79,3.56h-3.16A5.17,5.17,0,0,0,251.82,888.74Z"/><path class="cls-2" d="M274.39,909.23a8.26,8.26,0,0,1-5.13,1.55,9.34,9.34,0,0,1-3.78-.71,7.45,7.45,0,0,1-2.68-2,8.31,8.31,0,0,1-1.63-3,14.41,14.41,0,0,1-.62-3.83,10.92,10.92,0,0,1,.63-3.79,9.21,9.21,0,0,1,1.78-3,8.11,8.11,0,0,1,2.7-2,8.38,8.38,0,0,1,3.43-.7,7.44,7.44,0,0,1,4,1,8,8,0,0,1,2.56,2.55,10,10,0,0,1,1.33,3.37,14.13,14.13,0,0,1,.3,3.48H263.71a7.3,7.3,0,0,0,.28,2.26,5.07,5.07,0,0,0,1,1.9,5,5,0,0,0,1.79,1.31,6.17,6.17,0,0,0,2.57.5,5.17,5.17,0,0,0,3.1-.88,4.27,4.27,0,0,0,1.6-2.67H277A7.24,7.24,0,0,1,274.39,909.23Zm-.72-11.66a5,5,0,0,0-1.09-1.63,5.19,5.19,0,0,0-1.62-1.09,5.07,5.07,0,0,0-2-.41,5.2,5.2,0,0,0-2.09.41,5,5,0,0,0-1.6,1.1,5.48,5.48,0,0,0-1.05,1.64,6.23,6.23,0,0,0-.46,2h10.43A5.91,5.91,0,0,0,273.67,897.57Z"/><path class="cls-2" d="M283.1,892.23v3.83h.07a8.09,8.09,0,0,1,2.67-3.27,6.69,6.69,0,0,1,4-1V895a8.59,8.59,0,0,0-3,.49,4.79,4.79,0,0,0-2,1.44,6,6,0,0,0-1.13,2.3,12.62,12.62,0,0,0-.35,3.11v8.08h-3V892.23Z"/><path class="cls-2" d="M292.26,889v-3.66h3V889Zm3,3.26v18.16h-3V892.23Z"/><path class="cls-2" d="M316,910.32a4.28,4.28,0,0,1-2.14.46,2.59,2.59,0,0,1-1.85-.65,2.88,2.88,0,0,1-.68-2.13,7.31,7.31,0,0,1-2.86,2.13,9.55,9.55,0,0,1-3.53.65,9.38,9.38,0,0,1-2.34-.29,5.32,5.32,0,0,1-1.91-.87,4.25,4.25,0,0,1-1.29-1.57,6.16,6.16,0,0,1,.06-4.86,4.5,4.5,0,0,1,1.39-1.6,6.23,6.23,0,0,1,2-.93c.74-.21,1.49-.39,2.27-.53s1.6-.28,2.33-.37a11.81,11.81,0,0,0,1.95-.35,3.3,3.3,0,0,0,1.34-.66,1.66,1.66,0,0,0,.49-1.28,3.07,3.07,0,0,0-.37-1.59,2.59,2.59,0,0,0-1-.91,3.89,3.89,0,0,0-1.3-.42,9.81,9.81,0,0,0-1.42-.11,6.29,6.29,0,0,0-3.16.72,3,3,0,0,0-1.37,2.73h-3a6.37,6.37,0,0,1,.71-2.85,5.35,5.35,0,0,1,1.68-1.88,7.06,7.06,0,0,1,2.41-1,12.67,12.67,0,0,1,2.89-.32,16.49,16.49,0,0,1,2.44.18,6.32,6.32,0,0,1,2.2.71,4.22,4.22,0,0,1,1.58,1.53,4.85,4.85,0,0,1,.6,2.56v9.32a7.12,7.12,0,0,0,.12,1.54c.08.33.36.49.83.49A3.37,3.37,0,0,0,316,908ZM311.12,901a3.55,3.55,0,0,1-1.47.61c-.61.13-1.25.24-1.92.32s-1.34.17-2,.28a7.33,7.33,0,0,0-1.82.5,3.41,3.41,0,0,0-1.32,1,2.78,2.78,0,0,0-.51,1.77,2.42,2.42,0,0,0,.3,1.24,2.63,2.63,0,0,0,.77.82,3.24,3.24,0,0,0,1.11.45,5.77,5.77,0,0,0,1.33.14,7,7,0,0,0,2.53-.4,5.47,5.47,0,0,0,1.72-1,4,4,0,0,0,1-1.33,3.37,3.37,0,0,0,.31-1.35Z"/><path class="cls-2" d="M321.9,885.31v25.08h-3V885.31Z"/><path class="cls-2" d="M336.62,884.72,326.22,911h-2.53l10.37-26.23Z"/><path class="cls-2" d="M351.11,906.63a5.91,5.91,0,0,1-1.23,2.2,6.2,6.2,0,0,1-2.29,1.54,9.27,9.27,0,0,1-3.53.58,7.45,7.45,0,0,1-5.41-1.84,7.26,7.26,0,0,1-1.89-5.43v-1.54h3.34v1.05a10.36,10.36,0,0,0,.17,2,4.22,4.22,0,0,0,.62,1.58,2.9,2.9,0,0,0,1.22,1,4.89,4.89,0,0,0,2,.37,3.59,3.59,0,0,0,3.15-1.23,5.68,5.68,0,0,0,.86-3.3V885.31h3.33v18.83A8.82,8.82,0,0,1,351.11,906.63Z"/><path class="cls-2" d="M354.28,888.12v-2.81h20.06v2.81H366v22.27h-3.34V888.12Z"/><path class="cls-2" d="M384.38,885.31l9.8,25.08h-3.69l-2.74-7.55h-10.6l-2.81,7.55h-3.41l9.76-25.08ZM386.7,900l-4.18-11.7h-.07L378.2,900Z"/><path class="cls-2" d="M411.74,910.09a12,12,0,0,1-4.39.86,11.7,11.7,0,0,1-5-1,11.3,11.3,0,0,1-3.76-2.79,12.16,12.16,0,0,1-2.35-4,14.05,14.05,0,0,1-.81-4.74,17.88,17.88,0,0,1,.75-5.21,13.07,13.07,0,0,1,2.25-4.34,11.07,11.07,0,0,1,3.72-3,11.73,11.73,0,0,1,5.22-1.1,15,15,0,0,1,3.85.47,9.85,9.85,0,0,1,3.23,1.49,9.1,9.1,0,0,1,2.39,2.58,10.17,10.17,0,0,1,1.31,3.78H414.8a6.6,6.6,0,0,0-.92-2.48,5.7,5.7,0,0,0-1.65-1.7,7.3,7.3,0,0,0-2.23-1,10.29,10.29,0,0,0-2.65-.33,7.58,7.58,0,0,0-6.58,3.32,10.32,10.32,0,0,0-1.53,3.4,15.6,15.6,0,0,0-.49,3.92,12.42,12.42,0,0,0,.56,3.77,9.72,9.72,0,0,0,1.65,3.2,8,8,0,0,0,2.69,2.21,7.92,7.92,0,0,0,3.7.83,8.82,8.82,0,0,0,3.48-.64,7.39,7.39,0,0,0,2.54-1.73,7.54,7.54,0,0,0,1.57-2.6,8.53,8.53,0,0,0,.45-3.22h-8v-2.81h11v13.21h-2.11l-.88-3.13A8.31,8.31,0,0,1,411.74,910.09Z"/><path class="cls-2" d="M1094.73,769.54a40.27,40.27,0,0,0-5,11.49,30.48,30.48,0,0,0-1,6h-3.34a30.16,30.16,0,0,1,1-6.16,35.38,35.38,0,0,1,2.12-5.76,37.23,37.23,0,0,1,3-5.22,38.36,38.36,0,0,1,3.67-4.53h-13.06v-2.81h16.12v2.57A25.15,25.15,0,0,0,1094.73,769.54Z"/><path class="cls-2" d="M1106.74,783.13V787h-3.9v-3.9Z"/><path class="cls-2" d="M1134.75,765.38a7.05,7.05,0,0,0-4.27-1.21,10.24,10.24,0,0,0-2.07.21,5.47,5.47,0,0,0-1.81.7,3.71,3.71,0,0,0-1.26,1.32,4,4,0,0,0-.48,2.05,2.59,2.59,0,0,0,.69,1.88,5.13,5.13,0,0,0,1.83,1.18,15.84,15.84,0,0,0,2.58.75c1,.2,1.93.42,2.93.65s2,.51,2.93.83a9.43,9.43,0,0,1,2.58,1.28,6.18,6.18,0,0,1,1.83,2,7.17,7.17,0,0,1-.21,6.51,7.49,7.49,0,0,1-2.3,2.32,10,10,0,0,1-3.15,1.3,15.11,15.11,0,0,1-3.45.4,14.74,14.74,0,0,1-4-.52,9.94,9.94,0,0,1-3.3-1.6,7.55,7.55,0,0,1-2.25-2.74,8.82,8.82,0,0,1-.82-4h3.16a5.66,5.66,0,0,0,.61,2.72,5.57,5.57,0,0,0,1.62,1.88,6.86,6.86,0,0,0,2.33,1.09,10.89,10.89,0,0,0,2.74.35,12.53,12.53,0,0,0,2.27-.21,6.64,6.64,0,0,0,2-.72,3.85,3.85,0,0,0,2-3.64,3.11,3.11,0,0,0-.69-2.1,5,5,0,0,0-1.82-1.32,13.35,13.35,0,0,0-2.59-.83l-2.93-.65c-1-.22-2-.48-2.93-.77a10.49,10.49,0,0,1-2.58-1.16,5.61,5.61,0,0,1-1.83-1.86,5.53,5.53,0,0,1-.68-2.86,6.55,6.55,0,0,1,.77-3.28,6.77,6.77,0,0,1,2.06-2.29,9.22,9.22,0,0,1,2.91-1.33,13,13,0,0,1,3.35-.44,13.22,13.22,0,0,1,3.59.46,7.93,7.93,0,0,1,2.89,1.44,6.94,6.94,0,0,1,2,2.47,8.9,8.9,0,0,1,.79,3.57h-3.16A5.24,5.24,0,0,0,1134.75,765.38Z"/><path class="cls-2" d="M1147.55,768.87v2.46h.07a4.47,4.47,0,0,1,2.32-2.19,8.58,8.58,0,0,1,3.48-.69,8.16,8.16,0,0,1,3.67.78,7.49,7.49,0,0,1,2.6,2.09,9.17,9.17,0,0,1,1.56,3,12.5,12.5,0,0,1,.52,3.66,12.83,12.83,0,0,1-.5,3.65,8.55,8.55,0,0,1-1.55,3,7.22,7.22,0,0,1-2.6,2,8.43,8.43,0,0,1-3.63.74,9.41,9.41,0,0,1-1.5-.14,8.83,8.83,0,0,1-1.63-.46,6.44,6.44,0,0,1-1.53-.86,4.77,4.77,0,0,1-1.21-1.35h-.07V794h-3V768.87Zm10.73,6.45a6.52,6.52,0,0,0-1-2.16,4.92,4.92,0,0,0-1.75-1.51,5.31,5.31,0,0,0-2.51-.56,5.22,5.22,0,0,0-2.57.59,5.09,5.09,0,0,0-1.72,1.57,6.59,6.59,0,0,0-1,2.19,11,11,0,0,0-.29,2.5,10.48,10.48,0,0,0,.31,2.58,6.46,6.46,0,0,0,1,2.19,5.2,5.2,0,0,0,1.78,1.53,5.47,5.47,0,0,0,2.63.58,5.08,5.08,0,0,0,2.58-.6,4.78,4.78,0,0,0,1.67-1.58,6.65,6.65,0,0,0,.91-2.25,11.74,11.74,0,0,0,.28-2.59A9.38,9.38,0,0,0,1158.28,775.32Z"/><path class="cls-2" d="M1178.14,785.87a8.26,8.26,0,0,1-5.13,1.55,9.43,9.43,0,0,1-3.77-.7,7.51,7.51,0,0,1-2.69-2,8.37,8.37,0,0,1-1.63-3,14.83,14.83,0,0,1-.62-3.83,10.73,10.73,0,0,1,.64-3.79,9.12,9.12,0,0,1,1.77-3,8,8,0,0,1,2.7-2,8.29,8.29,0,0,1,3.43-.71,7.53,7.53,0,0,1,4,1,8,8,0,0,1,2.56,2.55,10,10,0,0,1,1.34,3.37,15.17,15.17,0,0,1,.3,3.48h-13.6a7,7,0,0,0,.29,2.26,5.19,5.19,0,0,0,1,1.9,5.07,5.07,0,0,0,1.8,1.32,6.12,6.12,0,0,0,2.56.49,5.16,5.16,0,0,0,3.11-.88,4.21,4.21,0,0,0,1.59-2.67h3A7.2,7.2,0,0,1,1178.14,785.87Zm-.72-11.66a5.12,5.12,0,0,0-1.09-1.63,5,5,0,0,0-1.61-1.09,5.12,5.12,0,0,0-2.06-.4,5.19,5.19,0,0,0-2.09.4,4.74,4.74,0,0,0-1.59,1.11,5.27,5.27,0,0,0-1.06,1.63,6.23,6.23,0,0,0-.46,2h10.44A6.23,6.23,0,0,0,1177.42,774.21Z"/><path class="cls-2" d="M1200.23,787a4.25,4.25,0,0,1-2.14.46,2.57,2.57,0,0,1-1.84-.65,2.81,2.81,0,0,1-.69-2.13,7.05,7.05,0,0,1-2.86,2.13,9.55,9.55,0,0,1-3.53.65,9.87,9.87,0,0,1-2.34-.28,5.5,5.5,0,0,1-1.91-.88,4.17,4.17,0,0,1-1.28-1.56,5.25,5.25,0,0,1-.48-2.34,5.36,5.36,0,0,1,.53-2.53,4.58,4.58,0,0,1,1.39-1.6,6.34,6.34,0,0,1,2-.93c.74-.21,1.5-.38,2.27-.52s1.6-.29,2.34-.37a13,13,0,0,0,1.94-.35,3.37,3.37,0,0,0,1.34-.67,1.62,1.62,0,0,0,.49-1.28,2.93,2.93,0,0,0-.37-1.58,2.47,2.47,0,0,0-1-.92,3.82,3.82,0,0,0-1.3-.42,9.78,9.78,0,0,0-1.42-.1,6.31,6.31,0,0,0-3.16.72,3.05,3.05,0,0,0-1.37,2.72h-3a6.4,6.4,0,0,1,.7-2.85,5.43,5.43,0,0,1,1.68-1.88,7.35,7.35,0,0,1,2.41-1,12.76,12.76,0,0,1,2.9-.32,16.59,16.59,0,0,1,2.44.18,6.21,6.21,0,0,1,2.19.72,4.19,4.19,0,0,1,1.58,1.52,4.88,4.88,0,0,1,.6,2.56v9.32a7.06,7.06,0,0,0,.12,1.54c.08.33.36.49.83.49a3.31,3.31,0,0,0,.91-.14Zm-4.84-9.31a3.8,3.8,0,0,1-1.48.62c-.61.12-1.25.23-1.91.31s-1.34.18-2,.28a7.41,7.41,0,0,0-1.83.51,3.29,3.29,0,0,0-1.32,1,2.78,2.78,0,0,0-.51,1.77,2.4,2.4,0,0,0,.3,1.24,2.45,2.45,0,0,0,.78.82,3.11,3.11,0,0,0,1.1.45,5.8,5.8,0,0,0,1.34.14,7,7,0,0,0,2.52-.4,5.34,5.34,0,0,0,1.73-1,4.05,4.05,0,0,0,1-1.33,3.39,3.39,0,0,0,.32-1.35Z"/><path class="cls-2" d="M1206.17,762v14.85l8.29-7.94h4l-7.2,6.61L1219,787h-3.8l-6.21-9.48-2.81,2.6V787h-3V762Z"/><path class="cls-2" d="M1234.09,785.87a8.26,8.26,0,0,1-5.13,1.55,9.51,9.51,0,0,1-3.78-.7,7.48,7.48,0,0,1-2.68-2,8.39,8.39,0,0,1-1.64-3,14.83,14.83,0,0,1-.61-3.83,11,11,0,0,1,.63-3.79,9.14,9.14,0,0,1,1.78-3,8,8,0,0,1,2.7-2,8.21,8.21,0,0,1,3.42-.71,7.55,7.55,0,0,1,4,1,8,8,0,0,1,2.56,2.55,10,10,0,0,1,1.33,3.37,14.13,14.13,0,0,1,.3,3.48h-13.59a7.3,7.3,0,0,0,.28,2.26,5.07,5.07,0,0,0,1,1.9,5.12,5.12,0,0,0,1.79,1.32,6.17,6.17,0,0,0,2.57.49,5.1,5.1,0,0,0,3.1-.88,4.22,4.22,0,0,0,1.6-2.67h3A7.28,7.28,0,0,1,1234.09,785.87Zm-.72-11.66a5.12,5.12,0,0,0-1.09-1.63,5.19,5.19,0,0,0-1.62-1.09,5.07,5.07,0,0,0-2.05-.4,5.19,5.19,0,0,0-2.09.4,4.89,4.89,0,0,0-1.6,1.11,5.25,5.25,0,0,0-1.05,1.63,6.23,6.23,0,0,0-.46,2h10.43A6.22,6.22,0,0,0,1233.37,774.21Z"/><path class="cls-2" d="M1242.8,768.87v3.83h.07a8,8,0,0,1,2.67-3.26,6.68,6.68,0,0,1,4-1v3.16a8.45,8.45,0,0,0-3.06.5,4.65,4.65,0,0,0-2,1.44,5.9,5.9,0,0,0-1.13,2.3,12.54,12.54,0,0,0-.35,3.1V787h-3V768.87Z"/><polygon class="cls-1" points="1286.38 176.34 1062.03 176.34 1031.11 145.42 751.95 145.42 751.95 143.87 1031.75 143.87 1062.67 174.79 1286.38 174.79 1286.38 176.34"/><rect class="cls-1" x="338.86" y="231.25" width="1.55" height="156.38"/><rect class="cls-1" x="338.86" y="609.79" width="1.55" height="160.69"/><polygon class="cls-1" points="452.04 1006.98 69.08 1006.98 69.08 1005.43 451.4 1005.43 587.19 869.63 588.29 870.73 452.04 1006.98"/><rect class="cls-1" x="704.6" y="870.18" width="1.55" height="81.76"/><polygon class="cls-1" points="168.11 877.33 103.75 877.33 103.75 497.39 326.33 497.39 326.33 498.94 105.3 498.94 105.3 875.78 168.11 875.78 168.11 877.33"/><polygon class="cls-1" points="1329.77 1004.62 1013.75 1004.62 1013.52 1004.39 879.86 870.73 880.96 869.63 1014.39 1003.07 1329.77 1003.07 1329.77 1004.62"/><path class="cls-2" d="M965.49,737.9H523.23a44.15,44.15,0,0,1-44.11-44.1V292a44.16,44.16,0,0,1,44.11-44.11H965.49a44.15,44.15,0,0,1,44.1,44.11V693.8A44.15,44.15,0,0,1,965.49,737.9ZM523.23,249.07a43,43,0,0,0-43,43V693.8a43,43,0,0,0,43,43H965.49a43,43,0,0,0,43-43V292a43,43,0,0,0-43-43Z"/><path class="cls-2" d="M961.31,728H527.41a37.62,37.62,0,0,1-37.58-37.58V295.39a37.62,37.62,0,0,1,37.58-37.58h433.9a37.62,37.62,0,0,1,37.57,37.58V690.44A37.62,37.62,0,0,1,961.31,728ZM527.41,259A36.47,36.47,0,0,0,491,295.39V690.44a36.47,36.47,0,0,0,36.43,36.42h433.9a36.46,36.46,0,0,0,36.42-36.42V295.39A36.47,36.47,0,0,0,961.31,259Z"/><path class="cls-2" d="M941.51,642.44H547.2a.57.57,0,0,1-.58-.57V344a.58.58,0,0,1,.58-.58H941.51a.58.58,0,0,1,.58.58V641.87A.57.57,0,0,1,941.51,642.44Zm-393.73-1.15H940.94V344.53H547.78Z"/><path class="cls-2" d="M653.14,713.25H592.35a.58.58,0,0,1-.58-.58V675.92a.58.58,0,0,1,.58-.57h60.79a.58.58,0,0,1,.57.57v36.75A.58.58,0,0,1,653.14,713.25Zm-60.22-1.15h59.64V676.5H592.92Z"/><path class="cls-2" d="M896.37,713.25H835.58a.58.58,0,0,1-.58-.58V675.92a.58.58,0,0,1,.58-.57h60.79a.57.57,0,0,1,.57.57v36.75A.57.57,0,0,1,896.37,713.25Zm-60.21-1.15h59.63V676.5H836.16Z"/><path class="cls-2" d="M774.75,713.25H714a.57.57,0,0,1-.57-.58V675.92a.57.57,0,0,1,.57-.57h60.79a.58.58,0,0,1,.58.57v36.75A.58.58,0,0,1,774.75,713.25Zm-60.21-1.15h59.64V676.5H714.54Z"/><path class="cls-2" d="M614.55,300.14a6.53,6.53,0,1,1,6.52-6.53A6.54,6.54,0,0,1,614.55,300.14Zm0-11.9a5.37,5.37,0,1,0,5.37,5.37A5.38,5.38,0,0,0,614.55,288.24Z"/><path class="cls-2" d="M886,300.14a6.53,6.53,0,1,1,6.52-6.53A6.53,6.53,0,0,1,886,300.14Zm0-11.9a5.37,5.37,0,1,0,5.37,5.37A5.38,5.38,0,0,0,886,288.24Z"/><polygon class="cls-1" points="615.32 293.61 613.77 293.61 613.77 230.48 1286.38 230.48 1286.38 232.03 615.32 232.03 615.32 293.61"/><rect class="cls-1" x="885.27" y="231.25" width="1.55" height="62.36"/><polygon class="cls-1" points="1247.21 892.98 1049.64 892.98 1049.64 755.61 621.97 755.61 621.97 694.3 623.52 694.3 623.52 754.07 1051.19 754.07 1051.19 891.43 1247.21 891.43 1247.21 892.98"/><rect class="cls-1" x="743.58" y="694.3" width="1.55" height="60.54"/><rect class="cls-1" x="865.2" y="694.3" width="1.55" height="60.54"/></svg>